<svg xmlns="http://www.w3.org/2000/svg">
<symbol id="add" viewBox="0 0 22 22">
  <path d="M11 4.583v12.834" stroke="currentColor" stroke-width="2" stroke-linecap="round" stroke-linejoin="round"/>
  <path d="M4.583 11h12.834" stroke="currentColor" stroke-width="2" stroke-linecap="round" stroke-linejoin="round"/>

</symbol>
<symbol id="calendar" viewBox="0 0 22 22">
  <path d="M17.417 3.667H4.583c-1.012 0-1.833.82-1.833 1.833v12.833c0 1.013.82 1.834 1.833 1.834h12.834c1.012 0 1.833-.821 1.833-1.834V5.5c0-1.013-.82-1.833-1.833-1.833z" stroke="currentColor" fill="none" stroke-width="2" stroke-linecap="round" stroke-linejoin="round"/>
  <path d="M14.667 1.833V5.5" stroke="currentColor" stroke-width="2" stroke-linecap="round" stroke-linejoin="round"/>
  <path d="M7.333 1.833V5.5" stroke="currentColor" stroke-width="2" stroke-linecap="round" stroke-linejoin="round"/>
  <path d="M2.75 9.167h16.5" stroke="currentColor" stroke-width="2" stroke-linecap="round" stroke-linejoin="round"/>

</symbol>
<symbol id="campaign" viewBox="0 0 24 24">
  <path d="M18 11v2h4v-2h-4z" fill="currentColor"/>
  <path d="M16 17.61c.96.71 2.21 1.65 3.2 2.39.4-.53.8-1.07 1.2-1.6-.99-.74-2.24-1.68-3.2-2.4-.4.54-.8 1.08-1.2 1.61z" fill="currentColor"/>
  <path d="M20.4 5.6c-.4-.53-.8-1.07-1.2-1.6-.99.74-2.24 1.68-3.2 2.4.4.53.8 1.07 1.2 1.6.96-.72 2.21-1.65 3.2-2.4z" fill="currentColor"/>
  <path d="M4 9c-1.1 0-2 .9-2 2v2c0 1.1.9 2 2 2h1v4h2v-4h1l5 3V6L8 9H4zm5.03 1.71L11 9.53v4.94l-1.97-1.18-.48-.29H4v-2h4.55l.48-.29z" fill="currentColor"/>
  <path d="M15.5 12c0-1.33-.58-2.53-1.5-3.35v6.69c.92-.81 1.5-2.01 1.5-3.34z" fill="currentColor"/>

</symbol>
<symbol id="check" viewBox="0 0 24 24">
  <path fill="none" d="M0 0h24v24H0V0z"/>
  <path fill="currentColor" d="M9 16.17 4.83 12l-1.42 1.41L9 19 21 7l-1.41-1.41L9 16.17z"/>

</symbol>
<symbol id="chevron-down" viewBox="0 0 24 24">
  <path fill="none" d="M24 24H0V0h24v24z" opacity=".87"/>
  <path fill="currentColor" d="M16.59 8.59 12 13.17 7.41 8.59 6 10l6 6 6-6-1.41-1.41z"/>

</symbol>
<symbol id="chevron-left" viewBox="0 0 24 24">
  <path fill="none" d="M0 0h24v24H0V0z"/>
  <path fill="currentColor" d="M15.41 7.41 14 6l-6 6 6 6 1.41-1.41L10.83 12l4.58-4.59z"/>

</symbol>
<symbol id="chevron-right" viewBox="0 0 24 24">
  <path fill="none" d="M0 0h24v24H0V0z"/>
  <path fill="currentColor" d="M10 6 8.59 7.41 13.17 12l-4.58 4.59L10 18l6-6-6-6z"/>

</symbol>
<symbol id="chevron-up" viewBox="0 0 24 24">
  <path fill="none" d="M0 0h24v24H0V0z"/>
  <path fill="currentColor" d="m12 8-6 6 1.41 1.41L12 10.83l4.59 4.58L18 14l-6-6z"/>

</symbol>
<symbol id="clock" viewBox="0 0 20 20">
  <path d="M9.99 0C4.47 0 0 4.48 0 10s4.47 10 9.99 10C15.52 20 20 15.52 20 10S15.52 0 9.99 0zM10 18c-4.42 0-8-3.58-8-8s3.58-8 8-8 8 3.58 8 8-3.58 8-8 8zm.5-13H9v6l5.25 3.15.75-1.23-4.5-2.67V5z" fill="currentColor"/>

</symbol>
<symbol id="close" viewBox="0 0 24 24">
  <path d="M18 6L6 18M6 6l12 12" stroke="currentColor" stroke-width="2" stroke-linecap="round" stroke-linejoin="round"/>

</symbol>
<symbol id="edit" viewBox="0 0 18 18">
  <path d="M13.104 1.668a2.283 2.283 0 013.227 3.228L5.438 15.79 1 17l1.21-4.438L13.104 1.668z" stroke="currentColor" fill="none" stroke-width="2" stroke-linecap="round" stroke-linejoin="round"/>

</symbol>
<symbol id="email" viewBox="0 0 24 24">
    <path fill="currentColor" d="M22 6c0-1.1-.9-2-2-2H4c-1.1 0-2 .9-2 2v12c0 1.1.9 2 2 2h16c1.1 0 2-.9 2-2V6zm-2 0l-8 5-8-5h16zm0 12H4V8l8 5 8-5v10z"/>

</symbol>
<symbol id="home" viewBox="0 0 22 22">
  <path d="M2.75 8.25L11 1.833l8.25 6.417v10.083a1.833 1.833 0 01-1.833 1.834H4.583a1.833 1.833 0 01-1.833-1.834V8.25z" stroke="currentColor" fill="none" stroke-width="2" stroke-linecap="round" stroke-linejoin="round"/>
  <path d="M8.25 20.167V11h5.5v9.167" stroke="currentColor" fill="none" stroke-width="2" stroke-linecap="round" stroke-linejoin="round"/>

</symbol>
<symbol id="info" viewBox="0 0 24 24">
  <path fill="none" d="M0 0h24v24H0V0z"/>
  <path fill="currentColor" d="M11 7h2v2h-2zm0 4h2v6h-2zm1-9C6.48 2 2 6.48 2 12s4.48 10 10 10 10-4.48 10-10S17.52 2 12 2zm0 18c-4.41 0-8-3.59-8-8s3.59-8 8-8 8 3.59 8 8-3.59 8-8 8z"/>

</symbol>
<symbol id="loading" viewBox="0 0 35 35">
  <path fill="currentColor" fill-opacity="1" d="M17.198 0c-.692.26-1.21.605-1.296 1.383v7.086c0 1.037.691 1.815 1.728 1.815.95 0 1.728-.778 1.728-1.815V2.16c0-1.037-.345-1.814-1.382-2.16h-.778z"/>
  <path fill="currentColor" fill-opacity="0.875" d="M11.408 12.877c.518 0 1.037-.346 1.296-.951a1.739 1.739 0 00-.26-1.815 6.907 6.907 0 00-1.123-1.123L7.52 5.185C7 4.667 6.395 4.494 5.79 4.753c-.691.173-1.037.605-1.123 1.296a1.594 1.594 0 00.432 1.383l4.926 4.926c.345.346.691.519 1.383.519z"/>
  <path fill="currentColor" fill-opacity="0.74" d="M5.099 15.815H1.815C.778 15.815 0 16.506 0 17.543c0 .95.778 1.729 1.815 1.729h6.654c1.037 0 1.815-.692 1.815-1.729 0-.95-.778-1.728-1.815-1.728H5.1z"/>
  <path fill="currentColor" fill-opacity="0.608" d="M4.666 28.691c0 .692.346 1.297 1.037 1.556.692.26 1.297.173 1.902-.346l2.074-2.074 2.592-2.592c.692-.692.778-1.815.087-2.507-.692-.691-1.729-.691-2.507.087l-4.58 4.58c-.345.26-.605.691-.605 1.296z"/>
  <path fill="currentColor" fill-opacity="0.335" d="M23.852 22.123c-.691 0-1.21.346-1.555 1.038-.26.69-.173 1.296.259 1.814.26.26.518.519.778.865l4.061 4.061c.951.95 2.507.519 2.852-.691.173-.605 0-1.21-.432-1.728l-1.469-1.47-3.198-3.197c-.345-.519-.777-.692-1.296-.692z"/>
  <path fill="currentColor" fill-opacity="0.335" d="M19.186 29.815V26.53c0-1.037-.692-1.815-1.729-1.815-.95 0-1.728.778-1.728 1.815v6.654c0 1.037.691 1.815 1.728 1.815.95 0 1.729-.778 1.729-1.815v-3.37z"/>
  <path fill="currentColor" fill-opacity="0.195" d="M35 17.111c-.26-.691-.605-1.21-1.383-1.296h-7.086c-1.037 0-1.815.691-1.815 1.728 0 .95.778 1.729 1.815 1.729h6.309c1.036 0 1.814-.346 2.16-1.383v-.778z"/>
  <path fill="currentColor" fill-opacity="0.057" d="M22.123 11.148c0 .692.346 1.297 1.037 1.556.692.26 1.297.173 1.902-.346a14062.787 14062.787 0 014.84-4.84c.518-.518.604-1.123.431-1.728-.26-.691-.691-1.037-1.382-1.21a1.594 1.594 0 00-1.383.432l-4.926 4.926a1.706 1.706 0 00-.519 1.21z"/>

</symbol>
<symbol id="lock" viewBox="0 0 16 16">
  <path fill="currentColor" stroke="null" d="M12.252 5.783h-.71V4.547a3.545 3.093 0 0 0-7.085 0v1.236h-.709c-.78 0-1.417.557-1.417 1.236v6.184c0 .68.638 1.236 1.417 1.236h8.504c.78 0 1.417-.557 1.417-1.236V7.02c0-.68-.638-1.237-1.417-1.237zM5.874 4.547c0-1.027.95-1.855 2.126-1.855s2.126.828 2.126 1.855v1.236H5.874V4.547zm6.378 8.656H3.748V7.02h8.504v6.183zM8 11.348c.78 0 1.417-.557 1.417-1.236S8.779 8.874 8 8.874s-1.417.557-1.417 1.238c0 .68.638 1.236 1.417 1.236z"/>

</symbol>
<symbol id="logout" viewBox="0 0 12 12">
  <path fill="none" stroke="currentColor" stroke-linecap="round" stroke-linejoin="round" d="M6 1.5H2a.947.947 0 0 0-.707.33A1.2 1.2 0 0 0 1 2.625v6.75c0 .299.105.586.293.796a.95.95 0 0 0 .707.33h4m3-2.25L11 6 9 3.75M11 6H4.5"/>

</symbol>
<symbol id="menu" viewBox="0 0 24 24">
  <path fill="currentColor" d="M3 18h18v-2H3v2zm0-5h18v-2H3v2zm0-7v2h18V6H3z"/>

</symbol>
<symbol id="minus" viewBox="0 0 22 22">
  <path d="M4.583 11h12.834" stroke="currentColor" stroke-width="2" stroke-linecap="round" stroke-linejoin="round"/>

</symbol>
<symbol id="refresh" viewBox="0 0 24 24">
  <path fill="currentColor" d="M17.65 6.35A7.958 7.958 0 0 0 12 4c-4.42 0-7.99 3.58-7.99 8s3.57 8 7.99 8c3.73 0 6.84-2.55 7.73-6h-2.08A5.99 5.99 0 0 1 12 18c-3.31 0-6-2.69-6-6s2.69-6 6-6c1.66 0 3.14.69 4.22 1.78L13 11h7V4l-2.35 2.35z"/>

</symbol>
<symbol id="save" viewBox="0 0 24 24">
  <path fill="none" d="M0 0h24v24H0V0z"/>
  <path fill="currentColor" d="M17 3H5a2 2 0 0 0-2 2v14a2 2 0 0 0 2 2h14c1.1 0 2-.9 2-2V7l-4-4zm2 16H5V5h11.17L19 7.83V19zm-7-7c-1.66 0-3 1.34-3 3s1.34 3 3 3 3-1.34 3-3-1.34-3-3-3zM6 6h9v4H6z"/>

</symbol>
<symbol id="share" viewBox="0 0 24 24">
  <path fill="none" d="M0 0h24v24H0V0z"/>
  <path fill="currentColor" d="M18 16.08c-.76 0-1.44.3-1.96.77L8.91 12.7c.05-.23.09-.46.09-.7s-.04-.47-.09-.7l7.05-4.11c.54.5 1.25.81 2.04.81 1.66 0 3-1.34 3-3s-1.34-3-3-3-3 1.34-3 3c0 .24.04.47.09.7L8.04 9.81C7.5 9.31 6.79 9 6 9c-1.66 0-3 1.34-3 3s1.34 3 3 3c.79 0 1.5-.31 2.04-.81l7.12 4.16c-.05.21-.08.43-.08.65 0 1.61 1.31 2.92 2.92 2.92s2.92-1.31 2.92-2.92c0-1.61-1.31-2.92-2.92-2.92zM18 4c.55 0 1 .45 1 1s-.45 1-1 1-1-.45-1-1 .45-1 1-1zM6 13c-.55 0-1-.45-1-1s.45-1 1-1 1 .45 1 1-.45 1-1 1zm12 7.02c-.55 0-1-.45-1-1s.45-1 1-1 1 .45 1 1-.45 1-1 1z"/>

</symbol>
<symbol id="trash" viewBox="0 0 22 22">
  <path d="M2.75 5.5h16.5" stroke="currentColor" stroke-width="2" stroke-linecap="round" stroke-linejoin="round"/>
  <path d="M7.333 5.5V3.667a1.833 1.833 0 011.834-1.834h3.666a1.833 1.833 0 011.834 1.834V5.5m2.75 0v12.833a1.833 1.833 0 01-1.834 1.834H6.417a1.833 1.833 0 01-1.834-1.834V5.5h12.834z" stroke="currentColor" fill="none" stroke-width="2" stroke-linecap="round" stroke-linejoin="round"/>
  <path d="M9.167 10.083v5.5" stroke="currentColor" stroke-width="2" stroke-linecap="round" stroke-linejoin="round"/>
  <path d="M12.833 10.083v5.5" stroke="currentColor" stroke-width="2" stroke-linecap="round" stroke-linejoin="round"/>

</symbol>
<symbol id="user" viewBox="0 0 20 20">
  <path d="M16.333 18.25v-1.917A3.833 3.833 0 0012.5 12.5H4.833A3.833 3.833 0 001 16.333v1.917" stroke="currentColor" fill="none" stroke-width="2" stroke-linecap="round" stroke-linejoin="round"/>
  <path d="M8.667 8.667a3.833 3.833 0 100-7.667 3.833 3.833 0 000 7.667z" stroke="currentColor" fill="none" stroke-width="2" stroke-linecap="round" stroke-linejoin="round"/>

</symbol></svg>