<svg xmlns="http://www.w3.org/2000/svg">
<symbol id="add" viewBox="0 0 22 22">
  <path d="M11 4.583v12.834" stroke="currentColor" stroke-width="2" stroke-linecap="round" stroke-linejoin="round"/>
  <path d="M4.583 11h12.834" stroke="currentColor" stroke-width="2" stroke-linecap="round" stroke-linejoin="round"/>

</symbol>
<symbol id="advise" viewBox="0 0 24 24">
  <path fill="currentColor" d="M20 2H4c-1.1 0-2 .9-2 2v18l4-4h14c1.1 0 2-.9 2-2V4c0-1.1-.9-2-2-2Zm0 14H5.17L4 17.17V4h16v12ZM11 5h2v6h-2V5Zm0 8h2v2h-2v-2Z"/>

</symbol>
<symbol id="agrisom-logo-min" viewBox="0 0 12.171 12.171">
  <defs/>
  <path d="M6.118.054L5.114 1.801c.308-.06.645-.091 1.01-.091.36 0 .69.028.993.082zm.006 3.05c-.713 0-1.28.226-1.703.678-.42.452-.629 1.123-.629 2.012 0 .96.214 1.68.64 2.16.426.479.985.718 1.676.718.341 0 .683-.067 1.025-.199.345-.136.641-.3.888-.49V6.956H6.152V5.596h3.15L8.72 4.58l-.175-.304-.601.113a1.694 1.694 0 00-.645-.938c-.312-.231-.704-.347-1.174-.347zm3.544 3.13v2.58a3.035 3.035 0 01-.362.293h2.013zm-7.461.626L.916 9.107h2.486a3.43 3.43 0 01-.817-1.092 4.774 4.774 0 01-.378-1.155z"/>

</symbol>
<symbol id="alert" viewBox="0 0 24 24">
  <path d="M15.73 3H8.27L3 8.27v7.46L8.27 21h7.46L21 15.73V8.27L15.73 3zM19 14.9L14.9 19H9.1L5 14.9V9.1L9.1 5h5.8L19 9.1v5.8z" fill="currentColor"/>
  <path d="M12 17a1 1 0 100-2 1 1 0 000 2z" fill="currentColor"/>
  <path d="M11 7h2v7h-2V7z" fill="currentColor"/>

</symbol>
<symbol id="arrow-right" viewBox="0 0 22 22">
  <path d="M4.583 11h12.834" stroke="currentColor" stroke-width="2" stroke-linecap="round" stroke-linejoin="round"/>
  <path d="M11 4.583L17.417 11 11 17.417" stroke="currentColor" fill="none" stroke-width="2" stroke-linecap="round" stroke-linejoin="round"/>

</symbol>
<symbol id="attach" viewBox="0 0 48 48">
  <path fill="currentColor" d="M23 44q-4.55 0-7.775-3.125Q12 37.75 12 33.2V11.7q0-3.2 2.275-5.45T19.75 4q3.25 0 5.5 2.25t2.25 5.5v19.7q0 1.9-1.3 3.225Q24.9 36 23 36q-1.9 0-3.2-1.425-1.3-1.425-1.3-3.375V11.6h2v19.75q0 1.1.725 1.875Q21.95 34 23 34q1.05 0 1.775-.75.725-.75.725-1.8V11.7q0-2.4-1.675-4.05T19.75 6q-2.4 0-4.075 1.65Q14 9.3 14 11.7v21.6q0 3.65 2.65 6.175T23 42q3.75 0 6.375-2.55T32 33.2V11.6h2v21.55q0 4.55-3.225 7.7Q27.55 44 23 44Z"/>

</symbol>
<symbol id="autonomo" viewBox="0 0 384 512">
  <path fill="currentColor" d="M221.5 51.7C216.6 39.8 204.9 32 192 32s-24.6 7.8-29.5 19.7l-120 288-40 96c-6.8 16.3 .9 35 17.2 41.8s35-.9 41.8-17.2L93.3 384H290.7l31.8 76.3c6.8 16.3 25.5 24 41.8 17.2s24-25.5 17.2-41.8l-40-96-120-288zM264 320H120l72-172.8L264 320z"/>

</symbol>
<symbol id="bell-active" viewBox="0 0 14 14">
  <path fill="currentColor" d="M7 12.614a1.15 1.15 0 0 0 1.14-1.152H5.86A1.15 1.15 0 0 0 7 12.614zm3.42-3.455V6.28c0-1.766-.93-3.247-2.565-3.638V2.25A.858.858 0 0 0 7 1.386a.858.858 0 0 0-.855.864v.39c-1.63.392-2.565 1.866-2.565 3.64v2.88l-1.14 1.15v.577h9.12v-.576Zm-1.14.575H4.72V6.28c0-1.428.86-2.591 2.28-2.591s2.28 1.163 2.28 2.59zm-4.8-7.439-.814-.823a5.942 6.003 0 0 0-2.35 4.52h1.141A4.814 4.863 0 0 1 4.48 2.295Zm7.063 3.697h1.14a5.978 6.039 0 0 0-2.349-4.52l-.81.823a4.842 4.891 0 0 1 2.019 3.697z"/>

</symbol>
<symbol id="bell" viewBox="0 0 22 22">
  <path d="M16.5 7.333a5.5 5.5 0 00-11 0c0 6.417-2.75 8.25-2.75 8.25h16.5s-2.75-1.833-2.75-8.25z" fill="none" stroke="currentColor" stroke-width="2" stroke-linecap="round" stroke-linejoin="round"/>
  <path d="M12.586 19.25a1.832 1.832 0 01-3.172 0" stroke="currentColor" stroke-width="2" stroke-linecap="round" stroke-linejoin="round"/>

</symbol>
<symbol id="block" viewBox="0 0 16 16">
  <path fill="currentColor" d="M8 1.333A6.67 6.67 0 0 0 1.333 8 6.67 6.67 0 0 0 8 14.667 6.67 6.67 0 0 0 14.667 8 6.67 6.67 0 0 0 8 1.333ZM2.667 8A5.332 5.332 0 0 1 8 2.667c1.233 0 2.367.42 3.267 1.127l-7.474 7.473A5.268 5.268 0 0 1 2.667 8ZM8 13.334a5.268 5.268 0 0 1-3.267-1.127l7.474-7.474A5.268 5.268 0 0 1 13.333 8 5.332 5.332 0 0 1 8 13.334Z"/>

</symbol>
<symbol id="building" viewBox="0 0 22 22">
  <path fill="currentColor" d="M11 6.417V2.75H1.833v16.5h18.334V6.417H11Zm-5.5 11H3.667v-1.834H5.5v1.834Zm0-3.667H3.667v-1.833H5.5v1.833Zm0-3.667H3.667V8.25H5.5v1.833Zm0-3.666H3.667V4.583H5.5v1.834Zm3.667 11H7.333v-1.834h1.834v1.834Zm0-3.667H7.333v-1.833h1.834v1.833Zm0-3.667H7.333V8.25h1.834v1.833Zm0-3.666H7.333V4.583h1.834v1.834Zm9.166 11H11v-1.834h1.833V13.75H11v-1.833h1.833v-1.834H11V8.25h7.333v9.167ZM16.5 10.083h-1.833v1.834H16.5v-1.834Zm0 3.667h-1.833v1.833H16.5V13.75Z"/>

</symbol>
<symbol id="calendar-check" viewBox="0 0 448 512">
<!--! Font Awesome Pro 6.3.0 by @fontawesome - https://fontawesome.com License - https://fontawesome.com/license (Commercial License) Copyright 2023 Fonticons, Inc.-->
  <path fill="currentColor" d="M128 0c17.7 0 32 14.3 32 32V64H288V32c0-17.7 14.3-32 32-32s32 14.3 32 32V64h48c26.5 0 48 21.5 48 48v48H0V112C0 85.5 21.5 64 48 64H96V32c0-17.7 14.3-32 32-32zM0 192H448V464c0 26.5-21.5 48-48 48H48c-26.5 0-48-21.5-48-48V192zM329 305c9.4-9.4 9.4-24.6 0-33.9s-24.6-9.4-33.9 0l-95 95-47-47c-9.4-9.4-24.6-9.4-33.9 0s-9.4 24.6 0 33.9l64 64c9.4 9.4 24.6 9.4 33.9 0L329 305z"/>

</symbol>
<symbol id="calendar-view-3days" viewBox="0 0 24 24">
  <path fill="currentColor" d="M20 4H4a2 2 0 0 0-2 2v12c0 1.1.9 2 2 2h16a2 2 0 0 0 2-2V6a2 2 0 0 0-2-2zM8 18H4V6h4v12zm6 0h-4V6h4v12zm6 0h-4V6h4v12z"/>

</symbol>
<symbol id="calendar-view-agenda" viewBox="0 0 24 24">
  <path fill="currentColor" d="M19 13H5a2 2 0 0 0-2 2v4c0 1.1.9 2 2 2h14a2 2 0 0 0 2-2v-4a2 2 0 0 0-2-2zm0 6H5v-4h14v4zM19 3H5a2 2 0 0 0-2 2v4c0 1.1.9 2 2 2h14a2 2 0 0 0 2-2V5a2 2 0 0 0-2-2zm0 6H5V5h14v4z"/>

</symbol>
<symbol id="calendar-view-day" viewBox="0 0 24 24">
  <path fill="currentColor" d="M3 17h18v2H3zm16-5v1H5v-1h14m2-2H3v5h18v-5zM3 6h18v2H3z"/>

</symbol>
<symbol id="calendar-view-month" viewBox="0 0 24 24">
  <path fill="currentColor" d="M20 4H4a2 2 0 0 0-2 2v12c0 1.1.9 2 2 2h16a2 2 0 0 0 2-2V6a2 2 0 0 0-2-2zM8 11H4V6h4v5zm6 0h-4V6h4v5zm6 0h-4V6h4v5zM8 18H4v-5h4v5zm6 0h-4v-5h4v5zm6 0h-4v-5h4v5z"/>

</symbol>
<symbol id="calendar-view-week" viewBox="0 0 24 24">
  <path fill="currentColor" d="M20 4H4a2 2 0 0 0-2 2v12c0 1.1.9 2 2 2h16a2 2 0 0 0 2-2V6a2 2 0 0 0-2-2zm-7 2h2.5v12H13V6zm-2 12H8.5V6H11v12zM4 6h2.5v12H4V6zm16 12h-2.5V6H20v12z"/>

</symbol>
<symbol id="calendar" viewBox="0 0 22 22">
  <path d="M17.417 3.667H4.583c-1.012 0-1.833.82-1.833 1.833v12.833c0 1.013.82 1.834 1.833 1.834h12.834c1.012 0 1.833-.821 1.833-1.834V5.5c0-1.013-.82-1.833-1.833-1.833z" stroke="currentColor" fill="none" stroke-width="2" stroke-linecap="round" stroke-linejoin="round"/>
  <path d="M14.667 1.833V5.5" stroke="currentColor" stroke-width="2" stroke-linecap="round" stroke-linejoin="round"/>
  <path d="M7.333 1.833V5.5" stroke="currentColor" stroke-width="2" stroke-linecap="round" stroke-linejoin="round"/>
  <path d="M2.75 9.167h16.5" stroke="currentColor" stroke-width="2" stroke-linecap="round" stroke-linejoin="round"/>

</symbol>
<symbol id="campaign" viewBox="0 0 24 24">
  <path d="M18 11v2h4v-2h-4z" fill="currentColor"/>
  <path d="M16 17.61c.96.71 2.21 1.65 3.2 2.39.4-.53.8-1.07 1.2-1.6-.99-.74-2.24-1.68-3.2-2.4-.4.54-.8 1.08-1.2 1.61z" fill="currentColor"/>
  <path d="M20.4 5.6c-.4-.53-.8-1.07-1.2-1.6-.99.74-2.24 1.68-3.2 2.4.4.53.8 1.07 1.2 1.6.96-.72 2.21-1.65 3.2-2.4z" fill="currentColor"/>
  <path d="M4 9c-1.1 0-2 .9-2 2v2c0 1.1.9 2 2 2h1v4h2v-4h1l5 3V6L8 9H4zm5.03 1.71L11 9.53v4.94l-1.97-1.18-.48-.29H4v-2h4.55l.48-.29z" fill="currentColor"/>
  <path d="M15.5 12c0-1.33-.58-2.53-1.5-3.35v6.69c.92-.81 1.5-2.01 1.5-3.34z" fill="currentColor"/>

</symbol>
<symbol id="car-side" viewBox="0 0 640 512">
  <path fill="currentColor" d="M171.3 96H224v96H111.3l30.4-75.9C146.5 104 158.2 96 171.3 96zM272 192V96h81.2c9.7 0 18.9 4.4 25 12l67.2 84H272zm256.2 1-100-125c-18.2-22.8-45.8-36-75-36H171.3C132 32 96.7 55.9 82.2 92.3L40.6 196.4C16.8 205.8 0 228.9 0 256v112c0 17.7 14.3 32 32 32h33.3c7.6 45.4 47.1 80 94.7 80s87.1-34.6 94.7-80h130.6c7.6 45.4 47.1 80 94.7 80s87.1-34.6 94.7-80H608c17.7 0 32-14.3 32-32v-48c0-65.2-48.8-119-111.8-127zm-2.9 207c-6.6 18.6-24.4 32-45.3 32s-38.7-13.4-45.3-32c-1.8-5-2.7-10.4-2.7-16 0-26.5 21.5-48 48-48s48 21.5 48 48c0 5.6-1 11-2.7 16zM160 432c-20.9 0-38.7-13.4-45.3-32-1.8-5-2.7-10.4-2.7-16 0-26.5 21.5-48 48-48s48 21.5 48 48c0 5.6-1 11-2.7 16-6.6 18.6-24.4 32-45.3 32z"/>

</symbol>
<symbol id="car" viewBox="0 0 23 23">
<path fill="currentColor" d="M17.843 5.51a1.37 1.37 0 0 0-1.301-.927H6.458c-.605 0-1.109.385-1.301.926L3.25 11v7.334a.92.92 0 0 0 .917.917h.916A.92.92 0 0 0 6 18.333v-.916h11v.916a.92.92 0 0 0 .917.917h.916a.92.92 0 0 0 .917-.917V11l-1.907-5.49ZM6.78 6.416h9.433l.99 2.85H5.789l.99-2.85Zm11.138 9.166H5.083V11h12.834v4.583Z"/>
<path fill="currentColor" d="M7.375 14.667a1.375 1.375 0 1 0 0-2.75 1.375 1.375 0 0 0 0 2.75ZM15.625 14.667a1.375 1.375 0 1 0 0-2.75 1.375 1.375 0 0 0 0 2.75Z"/>

</symbol>
<symbol id="cat" viewBox="0 0 512 512">
  <path fill="currentColor" d="M288 192h17.1c22.1 38.3 63.5 64 110.9 64c11 0 21.8-1.4 32-4v4 32V480c0 17.7-14.3 32-32 32s-32-14.3-32-32V339.2L248 448h56c17.7 0 32 14.3 32 32s-14.3 32-32 32H160c-53 0-96-43-96-96V192.5c0-16.1-12-29.8-28-31.8l-7.9-1C10.5 157.6-1.9 141.6 .2 124s18.2-30 35.7-27.8l7.9 1c48 6 84.1 46.8 84.1 95.3v85.3c34.4-51.7 93.2-85.8 160-85.8zm160 26.5v0c-10 3.5-20.8 5.5-32 5.5c-28.4 0-54-12.4-71.6-32h0c-3.7-4.1-7-8.5-9.9-13.2C325.3 164 320 146.6 320 128v0V32 12 10.7C320 4.8 324.7 .1 330.6 0h.2c3.3 0 6.4 1.6 8.4 4.2l0 .1L352 21.3l27.2 36.3L384 64h64l4.8-6.4L480 21.3 492.8 4.3l0-.1c2-2.6 5.1-4.2 8.4-4.2h.2C507.3 .1 512 4.8 512 10.7V12 32v96c0 17.3-4.6 33.6-12.6 47.6c-11.3 19.8-29.6 35.2-51.4 42.9zM400 128a16 16 0 1 0 -32 0 16 16 0 1 0 32 0zm48 16a16 16 0 1 0 0-32 16 16 0 1 0 0 32z"/>

</symbol>
<symbol id="chart-line" viewBox="0 0 512 512">
<!--! Font Awesome Pro 6.3.0 by @fontawesome - https://fontawesome.com License - https://fontawesome.com/license (Commercial License) Copyright 2023 Fonticons, Inc.-->
  <path fill="currentColor" d="M64 64c0-17.7-14.3-32-32-32S0 46.3 0 64V400c0 44.2 35.8 80 80 80H480c17.7 0 32-14.3 32-32s-14.3-32-32-32H80c-8.8 0-16-7.2-16-16V64zm406.6 86.6c12.5-12.5 12.5-32.8 0-45.3s-32.8-12.5-45.3 0L320 210.7l-57.4-57.4c-12.5-12.5-32.8-12.5-45.3 0l-112 112c-12.5 12.5-12.5 32.8 0 45.3s32.8 12.5 45.3 0L240 221.3l57.4 57.4c12.5 12.5 32.8 12.5 45.3 0l128-128z"/>

</symbol>
<symbol id="check-circle" viewBox="0 0 22 22">
  <path d="M20.167 10.157V11a9.168 9.168 0 11-5.436-8.378" stroke="currentColor" fill="none" stroke-width="2" stroke-linecap="round" stroke-linejoin="round"/>
  <path d="M20.167 3.667L11 12.842l-2.75-2.75" stroke="currentColor" fill="none" stroke-width="2" stroke-linecap="round" stroke-linejoin="round"/>

</symbol>
<symbol id="check-double" viewBox="0 0 15 15">
  <path fill="currentColor" d="m11.25 4.375-.881-.881-3.963 3.962.882.882 3.962-3.963Zm2.65-.881-6.612 6.612L4.675 7.5l-.881.881 3.494 3.494 7.5-7.5-.888-.881ZM.256 8.38l3.494 3.494.881-.881L1.144 7.5l-.888.881Z"/>

</symbol>
<symbol id="check" viewBox="0 0 24 24">
  <path fill="none" d="M0 0h24v24H0V0z"/>
  <path fill="currentColor" d="M9 16.17 4.83 12l-1.42 1.41L9 19 21 7l-1.41-1.41L9 16.17z"/>

</symbol>
<symbol id="checkbox-false" viewBox="0 0 24 24">
  <path fill="none" d="M0 0h24v24H0z"/>
  <path fill="currentColor" d="M19 19H5V5h14v14zM3 3v18h18V3H3zm14 12.59L15.59 17 12 13.41 8.41 17 7 15.59 10.59 12 7 8.41 8.41 7 12 10.59 15.59 7 17 8.41 13.41 12 17 15.59z"/>

</symbol>
<symbol id="checkbox-true" viewBox="0 0 24 24">
  <path fill="none" d="M0 0h24v24H0V0z"/>
  <path fill="currentColor" d="M19 3H5c-1.1 0-2 .9-2 2v14c0 1.1.9 2 2 2h14c1.1 0 2-.9 2-2V5c0-1.1-.9-2-2-2zm0 16H5V5h14v14zM17.99 9l-1.41-1.42-6.59 6.59-2.58-2.57-1.42 1.41 4 3.99z"/>

</symbol>
<symbol id="checkbox-undefined" viewBox="0 0 24 24">
  <path fill="none" d="M0 0h24v24H0V0z"/>
  <path fill="currentColor" d="M19 5v14H5V5h14m0-2H5c-1.1 0-2 .9-2 2v14c0 1.1.9 2 2 2h14c1.1 0 2-.9 2-2V5c0-1.1-.9-2-2-2z"/>

</symbol>
<symbol id="chevron-down" viewBox="0 0 24 24">
  <path fill="none" d="M24 24H0V0h24v24z" opacity=".87"/>
  <path fill="currentColor" d="M16.59 8.59 12 13.17 7.41 8.59 6 10l6 6 6-6-1.41-1.41z"/>

</symbol>
<symbol id="chevron-left" viewBox="0 0 24 24">
  <path fill="none" d="M0 0h24v24H0V0z"/>
  <path fill="currentColor" d="M15.41 7.41 14 6l-6 6 6 6 1.41-1.41L10.83 12l4.58-4.59z"/>

</symbol>
<symbol id="chevron-right" viewBox="0 0 24 24">
  <path fill="none" d="M0 0h24v24H0V0z"/>
  <path fill="currentColor" d="M10 6 8.59 7.41 13.17 12l-4.58 4.59L10 18l6-6-6-6z"/>

</symbol>
<symbol id="chevron-up" viewBox="0 0 24 24">
  <path fill="none" d="M0 0h24v24H0V0z"/>
  <path fill="currentColor" d="m12 8-6 6 1.41 1.41L12 10.83l4.59 4.58L18 14l-6-6z"/>

</symbol>
<symbol id="child" viewBox="0 0 384 512">
  <path fill="currentColor" d="M240 64A64 64 0 1 0 112 64a64 64 0 1 0 128 0zM136.9 169.3c-23.7-8.4-44.5-24.3-58.8-45.8L58.6 94.2C48.8 79.5 29 75.6 14.2 85.4S-4.4 115 5.4 129.8L24.9 159c18.1 27.1 42.8 48.4 71.1 62.4V480c0 17.7 14.3 32 32 32s32-14.3 32-32V384h32v96c0 17.7 14.3 32 32 32s32-14.3 32-32V221.6c29.1-14.2 54.4-36.2 72.7-64.2l18.2-27.9c9.6-14.8 5.4-34.6-9.4-44.3s-34.6-5.5-44.3 9.4L275 122.4c-21.8 33.4-58.9 53.6-98.8 53.6c-12.6 0-24.9-2-36.6-5.8c-.9-.3-1.8-.7-2.7-.9z"/>

</symbol>
<symbol id="cibersegurity" viewBox="0 0 24 24">
<path fill="currentColor" d="M18.92 12c.04.33.08.66.08 1 0 2.08-.8 3.97-2.1 5.39-.26-.81-1-1.39-1.9-1.39h-1v-3c0-.55-.45-1-1-1H7v-2h2c.55 0 1-.45 1-1V8h2c1.1 0 2-.9 2-2V3.46c-.95-.3-1.95-.46-3-.46C5.48 3 1 7.48 1 13s4.48 10 10 10 10-4.48 10-10c0-.34-.02-.67-.05-1h-2.03zM10 20.93c-3.95-.49-7-3.85-7-7.93 0-.62.08-1.21.21-1.79L8 16v1c0 1.1.9 2 2 2v1.93zM22 4v-.5a2.5 2.5 0 0 0-5 0V4c-.55 0-1 .45-1 1v4c0 .55.45 1 1 1h5c.55 0 1-.45 1-1V5c0-.55-.45-1-1-1zm-1 0h-3v-.5c0-.83.67-1.5 1.5-1.5s1.5.67 1.5 1.5V4z"/>

</symbol>
<symbol id="circle-check" viewBox="0 0 512 512">
  <path fill="currentColor" d="M256 8a248 248 0 1 0 0 496 248 248 0 0 0 0-496zm0 48a200 200 0 1 1 0 400 200 200 0 0 1 0-400m140 130-22-22c-5-5-13-5-17-1L215 304l-59-61c-5-4-13-4-17 0l-23 23c-5 5-5 12 0 17l91 91c4 5 12 5 17 0l172-171c5-4 5-12 0-17z"/>

</symbol>
<symbol id="circle-dot" viewBox="0 0 512 512">
  <path fill="currentColor" d="M256 56a200 200 0 1 1 0 400 200 200 0 0 1 0-400m0-48a248 248 0 1 0 0 496 248 248 0 0 0 0-496zm0 168a80 80 0 1 0 0 160 80 80 0 0 0 0-160z"/>

</symbol>
<symbol id="circle-empty" viewBox="0 0 512 512">
  <path fill="currentColor" d="M256 8a248 248 0 1 0 0 496 248 248 0 0 0 0-496zm0 448a200 200 0 1 1 0-400 200 200 0 0 1 0 400z"/>

</symbol>
<symbol id="circle-exclamation" viewBox="0 0 512 512">
  <path fill="currentColor" d="M256 512A256 256 0 1 0 256 0a256 256 0 1 0 0 512zm0-384c13.3 0 24 10.7 24 24V264c0 13.3-10.7 24-24 24s-24-10.7-24-24V152c0-13.3 10.7-24 24-24zM224 352a32 32 0 1 1 64 0 32 32 0 1 1 -64 0z"/>

</symbol>
<symbol id="circle" viewBox="0 0 512 512">
  <path fill="currentColor" d="M256 8a248 248 0 1 0 0 496 248 248 0 0 0 0-496z"/>

</symbol>
<symbol id="cliente-base" viewBox="0 0 512 512">
  <path fill="currentColor" d="M256 512A256 256 0 1 0 256 0a256 256 0 1 0 0 512zm0-384c13.3 0 24 10.7 24 24V264c0 13.3-10.7 24-24 24s-24-10.7-24-24V152c0-13.3 10.7-24 24-24zM224 352a32 32 0 1 1 64 0 32 32 0 1 1 -64 0z"/>

</symbol>
<symbol id="cliente-default" viewBox="0 0 512 512">
  <path fill="currentColor" d="M256 512A256 256 0 1 0 256 0a256 256 0 1 0 0 512zM169.8 165.3c7.9-22.3 29.1-37.3 52.8-37.3h58.3c34.9 0 63.1 28.3 63.1 63.1c0 22.6-12.1 43.5-31.7 54.8L280 264.4c-.2 13-10.9 23.6-24 23.6c-13.3 0-24-10.7-24-24V250.5c0-8.6 4.6-16.5 12.1-20.8l44.3-25.4c4.7-2.7 7.6-7.7 7.6-13.1c0-8.4-6.8-15.1-15.1-15.1H222.6c-3.4 0-6.4 2.1-7.5 5.3l-.4 1.2c-4.4 12.5-18.2 19-30.6 14.6s-19-18.2-14.6-30.6l.4-1.2zM224 352a32 32 0 1 1 64 0 32 32 0 1 1 -64 0z"/>

</symbol>
<symbol id="cliente-integral" viewBox="0 0 512 512">
  <path fill="currentColor" d="M256 512A256 256 0 1 0 256 0a256 256 0 1 0 0 512zM216 336h24V272H216c-13.3 0-24-10.7-24-24s10.7-24 24-24h48c13.3 0 24 10.7 24 24v88h8c13.3 0 24 10.7 24 24s-10.7 24-24 24H216c-13.3 0-24-10.7-24-24s10.7-24 24-24zm40-208a32 32 0 1 1 0 64 32 32 0 1 1 0-64z"/>

</symbol>
<symbol id="cliente-mas" viewBox="0 0 512 512">
  <path fill="currentColor" d="M256 512c141.4 0 256-114.6 256-256S397.4 0 256 0S0 114.6 0 256S114.6 512 256 512zM232 344V280H168c-13.3 0-24-10.7-24-24s10.7-24 24-24h64V168c0-13.3 10.7-24 24-24s24 10.7 24 24v64h64c13.3 0 24 10.7 24 24s-10.7 24-24 24H280v64c0 13.3-10.7 24-24 24s-24-10.7-24-24z"/>

</symbol>
<symbol id="cliente-potencial" viewBox="0 0 512 512">
  <path fill="currentColor" d="M326.3 218.8c0 20.5-16.7 37.2-37.2 37.2h-70.3v-74.4h70.3c20.5 0 37.2 16.7 37.2 37.2zM504 256c0 137-111 248-248 248S8 393 8 256 119 8 256 8s248 111 248 248zm-128.1-37.2c0-47.9-38.9-86.8-86.8-86.8H169.2v248h49.6v-74.4h70.3c47.9 0 86.8-38.9 86.8-86.8z"/>

</symbol>
<symbol id="clock" viewBox="0 0 512 512">
<!--! Font Awesome Pro 6.4.0 by @fontawesome - https://fontawesome.com License - https://fontawesome.com/license (Commercial License) Copyright 2023 Fonticons, Inc.-->
  <path fill="currentColor" d="M464 256A208 208 0 1 1 48 256a208 208 0 1 1 416 0zM0 256a256 256 0 1 0 512 0A256 256 0 1 0 0 256zM232 120V256c0 8 4 15.5 10.7 20l96 64c11 7.4 25.9 4.4 33.3-6.7s4.4-25.9-6.7-33.3L280 243.2V120c0-13.3-10.7-24-24-24s-24 10.7-24 24z"/>

</symbol>
<symbol id="clone" viewBox="0 0 15 15">
<path fill="none" d="M12.7 5.55H6.85a1.3 1.3 0 0 0-1.3 1.3v5.85a1.3 1.3 0 0 0 1.3 1.3h5.85a1.3 1.3 0 0 0 1.3-1.3V6.85a1.3 1.3 0 0 0-1.3-1.3Z" stroke="currentColor" stroke-linecap="round" stroke-linejoin="round"/>
<path fill="none" d="M2.95 9.45H2.3A1.3 1.3 0 0 1 1 8.15V2.3A1.3 1.3 0 0 1 2.3 1h5.85a1.3 1.3 0 0 1 1.3 1.3v.65" stroke="currentColor" stroke-linecap="round" stroke-linejoin="round"/>

</symbol>
<symbol id="close" viewBox="0 0 24 24">
  <path d="M18 6L6 18M6 6l12 12" stroke="currentColor" stroke-width="2" stroke-linecap="round" stroke-linejoin="round"/>

</symbol>
<symbol id="cloud-upload" viewBox="0 0 24 24">
  <path fill="none" d="M0 0h24v24H0V0z"/>
  <path fill="currentColor" d="M19.35 10.04A7.49 7.49 0 0 0 12 4C9.11 4 6.6 5.64 5.35 8.04A5.994 5.994 0 0 0 0 14c0 3.31 2.69 6 6 6h13c2.76 0 5-2.24 5-5 0-2.64-2.05-4.78-4.65-4.96zM19 18H6c-2.21 0-4-1.79-4-4 0-2.05 1.53-3.76 3.56-3.97l1.07-.11.5-.95A5.469 5.469 0 0 1 12 6c2.62 0 4.88 1.86 5.39 4.43l.3 1.5 1.53.11A2.98 2.98 0 0 1 22 15c0 1.65-1.35 3-3 3zM8 13h2.55v3h2.9v-3H16l-4-4z"/>

</symbol>
<symbol id="comment" viewBox="0 0 20 20">
  <path d="M18.25 9.542a7.68 7.68 0 01-.825 3.483 7.792 7.792 0 01-6.967 4.308 7.683 7.683 0 01-3.483-.825L1.75 18.25l1.742-5.225a7.681 7.681 0 01-.825-3.483 7.792 7.792 0 014.308-6.967 7.682 7.682 0 013.483-.825h.459a7.773 7.773 0 017.333 7.333v.459z" stroke="currentColor" fill="none" stroke-width="2" stroke-linecap="round" stroke-linejoin="round"/>

</symbol>
<symbol id="copy" viewBox="0 0 24 24">
  <path d="M20.8 8.7h-9.9a2.2 2.2 0 00-2.2 2.2v9.9a2.2 2.2 0 002.2 2.2h9.9a2.2 2.2 0 002.2-2.2v-9.9a2.2 2.2 0 00-2.2-2.2z" stroke="currentColor" fill="none" stroke-width="2" stroke-linecap="round" stroke-linejoin="round"/>
  <path d="M4.3 15.3H3.2A2.2 2.2 0 011 13.1V3.2A2.2 2.2 0 013.2 1h9.9a2.2 2.2 0 012.2 2.2v1.1" stroke="currentColor" fill="none" stroke-width="2" stroke-linecap="round" stroke-linejoin="round"/>

</symbol>
<symbol id="dev" viewBox="0 0 24 24">
  <path fill="currentColor" d="M19 3H5c-1.1 0-2 .9-2 2v14c0 1.1.9 2 2 2h14c1.1 0 2-.9 2-2V5c0-1.1-.9-2-2-2zM7.68 14.98H6V9h1.71c1.28 0 1.71 1.03 1.71 1.71v2.56c0 .68-.42 1.71-1.74 1.71zm4.7-3.52v1.07H11.2v1.39h1.93v1.07h-2.25c-.4.01-.74-.31-.75-.71V9.75c-.01-.4.31-.74.71-.75h2.28v1.07H11.2v1.39h1.18zm4.5 2.77c-.48 1.11-1.33.89-1.71 0L13.77 9h1.18l1.07 4.11L17.09 9h1.18l-1.39 5.23z"/>
  <path fill="currentColor" d="M7.77 10.12h-.63v3.77h.63c.14 0 .28-.05.42-.16.14-.1.21-.26.21-.47v-2.52c0-.21-.07-.37-.21-.47a.72.72 0 0 0-.42-.15z"/>

</symbol>
<symbol id="dog" viewBox="0 0 576 512">
  <path fill="currentColor" d="M309.6 158.5L332.7 19.8C334.6 8.4 344.5 0 356.1 0c7.5 0 14.5 3.5 19 9.5L392 32h52.1c12.7 0 24.9 5.1 33.9 14.1L496 64h56c13.3 0 24 10.7 24 24v24c0 44.2-35.8 80-80 80H464 448 426.7l-5.1 30.5-112-64zM416 256.1L416 480c0 17.7-14.3 32-32 32H352c-17.7 0-32-14.3-32-32V364.8c-24 12.3-51.2 19.2-80 19.2s-56-6.9-80-19.2V480c0 17.7-14.3 32-32 32H96c-17.7 0-32-14.3-32-32V249.8c-28.8-10.9-51.4-35.3-59.2-66.5L1 167.8c-4.3-17.1 6.1-34.5 23.3-38.8s34.5 6.1 38.8 23.3l3.9 15.5C70.5 182 83.3 192 98 192h30 16H303.8L416 256.1zM464 80a16 16 0 1 0 -32 0 16 16 0 1 0 32 0z"/>

</symbol>
<symbol id="edit" viewBox="0 0 18 18">
  <path d="M13.104 1.668a2.283 2.283 0 013.227 3.228L5.438 15.79 1 17l1.21-4.438L13.104 1.668z" stroke="currentColor" fill="none" stroke-width="2" stroke-linecap="round" stroke-linejoin="round"/>

</symbol>
<symbol id="email" viewBox="0 0 24 24">
    <path fill="currentColor" d="M22 6c0-1.1-.9-2-2-2H4c-1.1 0-2 .9-2 2v12c0 1.1.9 2 2 2h16c1.1 0 2-.9 2-2V6zm-2 0l-8 5-8-5h16zm0 12H4V8l8 5 8-5v10z"/>

</symbol>
<symbol id="eye-slash" viewBox="0 0 15 15">
  <path fill="none" stroke="currentColor" stroke-width="1.5" stroke-linecap="round" stroke-linejoin="round" d="M8.825 8.825a1.875 1.875 0 1 1-2.65-2.65m5.038 5.038A6.293 6.293 0 0 1 7.5 12.5c-4.375 0-6.875-5-6.875-5a11.531 11.531 0 0 1 3.163-3.712l7.425 7.425ZM6.188 2.65A5.7 5.7 0 0 1 7.5 2.5c4.375 0 6.875 5 6.875 5-.38.71-.832 1.378-1.35 1.994L6.187 2.65ZM.625.625l13.75 13.75"/>

</symbol>
<symbol id="eye" viewBox="0 0 48 48">
  <path fill="currentColor" d="M24 31.5q3.55 0 6.025-2.475Q32.5 26.55 32.5 23q0-3.55-2.475-6.025Q27.55 14.5 24 14.5q-3.55 0-6.025 2.475Q15.5 19.45 15.5 23q0 3.55 2.475 6.025Q20.45 31.5 24 31.5Zm0-2.9q-2.35 0-3.975-1.625T18.4 23q0-2.35 1.625-3.975T24 17.4q2.35 0 3.975 1.625T29.6 23q0 2.35-1.625 3.975T24 28.6Zm0 9.4q-7.3 0-13.2-4.15Q4.9 29.7 2 23q2.9-6.7 8.8-10.85Q16.7 8 24 8q7.3 0 13.2 4.15Q43.1 16.3 46 23q-2.9 6.7-8.8 10.85Q31.3 38 24 38Zm0-15Zm0 12q6.05 0 11.125-3.275T42.85 23q-2.65-5.45-7.725-8.725Q30.05 11 24 11t-11.125 3.275Q7.8 17.55 5.1 23q2.7 5.45 7.775 8.725Q17.95 35 24 35Z"/>

</symbol>
<symbol id="fact-check" viewBox="0 0 48 48">
  <path fill="currentColor" d="M10 18h10v-4H10Zm0 8h10v-4H10Zm0 8h10v-4H10Zm19.1-4 9.9-9.9-2.85-2.85-7.05 7.1-2.85-2.85-2.8 2.85ZM6.6 42q-1.2 0-2.1-.9-.9-.9-.9-2.1V9q0-1.2.9-2.1.9-.9 2.1-.9h34.8q1.2 0 2.1.9.9.9.9 2.1v30q0 1.2-.9 2.1-.9.9-2.1.9Zm0-3h34.8V9H6.6v30Zm0 0V9v30Z"/>

</symbol>
<symbol id="factory" viewBox="0 0 24 24">
<path fill="currentColor" d="M22 22H2V10l7-3v2l5-2v3h3l1-8h3l1 8v12zM12 9.95l-5 2V10l-3 1.32V20h16v-8h-8V9.95zM11 18h2v-4h-2v4zm-4 0h2v-4H7v4zm10-4h-2v4h2v-4z"/>

</symbol>
<symbol id="family" viewBox="0 0 22 22">
  <path fill="currentColor" d="M3.667 11.917A1.839 1.839 0 0 0 5.5 10.083 1.839 1.839 0 0 0 3.667 8.25a1.839 1.839 0 0 0-1.834 1.833c0 1.009.825 1.834 1.834 1.834Zm1.035 1.008a6.4 6.4 0 0 0-1.035-.092 6.37 6.37 0 0 0-2.549.532A1.843 1.843 0 0 0 0 15.061V16.5h4.125v-1.476c0-.76.21-1.476.577-2.099Zm13.631-1.008a1.839 1.839 0 0 0 1.834-1.834 1.839 1.839 0 0 0-1.834-1.833 1.839 1.839 0 0 0-1.833 1.833c0 1.009.825 1.834 1.833 1.834ZM22 15.06c0-.743-.44-1.403-1.118-1.696a6.371 6.371 0 0 0-2.549-.532 6.4 6.4 0 0 0-1.035.092c.366.623.577 1.338.577 2.1V16.5H22v-1.44Zm-7.113-2.549A9.572 9.572 0 0 0 11 11.688a9.727 9.727 0 0 0-3.887.825A2.74 2.74 0 0 0 5.5 15.024V16.5h11v-1.476a2.739 2.739 0 0 0-1.613-2.511Zm-7.49 2.155c.083-.211.12-.358.835-.633A7.56 7.56 0 0 1 11 13.521c.944 0 1.88.165 2.768.513.706.275.743.422.834.633H7.397ZM11 7.333a.92.92 0 0 1 .917.917.92.92 0 0 1-.917.917.92.92 0 0 1-.917-.917.92.92 0 0 1 .917-.917ZM11 5.5a2.746 2.746 0 0 0-2.75 2.75A2.746 2.746 0 0 0 11 11a2.746 2.746 0 0 0 2.75-2.75A2.746 2.746 0 0 0 11 5.5Z"/>

</symbol>
<symbol id="fav-fill" viewBox="0 0 24 24">
  <path fill="currentColor" stroke="currentColor" stroke-linecap="round" stroke-linejoin="round" stroke-width="2" d="m12 1.846 3.399 6.684L23 9.608l-5.5 5.2 1.298 7.346L12 18.684l-6.798 3.47L6.5 14.808 1 9.608 8.601 8.53 12 1.846z"/>

</symbol>
<symbol id="fav" viewBox="0 0 24 24">
  <path fill="none" stroke="currentColor" stroke-linecap="round" stroke-linejoin="round" stroke-width="2" d="m12 1.846 3.399 6.684L23 9.608l-5.5 5.2 1.298 7.346L12 18.684l-6.798 3.47L6.5 14.808 1 9.608 8.601 8.53 12 1.846z"/>

</symbol>
<symbol id="file" viewBox="0 0 16 16">
  <path fill="currentColor" d="M5.333 10.667h5.334V12H5.333v-1.333Zm0-2.667h5.334v1.333H5.333V8Zm4-6.667H4c-.733 0-1.333.6-1.333 1.334v10.666c0 .734.593 1.334 1.326 1.334H12c.733 0 1.333-.6 1.333-1.334v-8l-4-4Zm2.667 12H4V2.667h4.667V6H12v7.333Z"/>

</symbol>
<symbol id="filter-off" viewBox="0 0 48 48">
  <path fill="currentColor" d="m29 24.75-2.15-2.15L36 11H15.25l-3-3H38.6q1.05 0 1.55.95t-.2 1.8Zm11.65 20.2L28 32.3V38q0 .85-.575 1.425Q26.85 40 26 40h-4q-.85 0-1.425-.575Q20 38.85 20 38V24.3L3.05 7.35 5.2 5.2l37.6 37.6ZM26.85 22.6Z"/>

</symbol>
<symbol id="filter" viewBox="0 0 22 22">
  <path fill="none" stroke="currentColor" stroke-linecap="round" stroke-linejoin="round" stroke-width="2" d="M19.71 3.565H2.29l6.968 7.815v5.403l3.484 1.652V11.38l6.969-7.815z"/>

</symbol>
<symbol id="google-calendar" viewBox="0 0 24 24">
  <path fill="currentColor" d="M21.35 11.1h-9.17v2.73h6.51c-.33 3.81-3.5 5.44-6.5 5.44C8.36 19.27 5 16.25 5 12c0-4.1 3.2-7.27 7.2-7.27 3.09 0 4.9 1.97 4.9 1.97L19 4.72S16.56 2 12.1 2C6.42 2 2.03 6.8 2.03 12c0 5.05 4.13 10 10.22 10 5.35 0 9.25-3.67 9.25-9.09 0-1.15-.15-1.81-.15-1.81Z"/>

</symbol>
<symbol id="group" viewBox="0 0 48 48">
  <path fill="currentColor" d="M0 36v-2.65q0-1.95 2.1-3.15T7.5 29q.65 0 1.2.025.55.025 1.1.125-.4.85-.6 1.725-.2.875-.2 1.875V36Zm12 0v-3.25q0-3.25 3.325-5.25t8.675-2q5.4 0 8.7 2 3.3 2 3.3 5.25V36Zm27 0v-3.25q0-1-.175-1.875t-.575-1.725q.55-.1 1.1-.125Q39.9 29 40.5 29q3.4 0 5.45 1.2Q48 31.4 48 33.35V36Zm-15-7.5q-4 0-6.5 1.2T15 32.75V33h18v-.3q0-1.8-2.475-3T24 28.5Zm-16.5-1q-1.45 0-2.475-1.025Q4 25.45 4 24q0-1.45 1.025-2.475Q6.05 20.5 7.5 20.5q1.45 0 2.475 1.025Q11 22.55 11 24q0 1.45-1.025 2.475Q8.95 27.5 7.5 27.5Zm33 0q-1.45 0-2.475-1.025Q37 25.45 37 24q0-1.45 1.025-2.475Q39.05 20.5 40.5 20.5q1.45 0 2.475 1.025Q44 22.55 44 24q0 1.45-1.025 2.475Q41.95 27.5 40.5 27.5ZM24 24q-2.5 0-4.25-1.75T18 18q0-2.55 1.75-4.275Q21.5 12 24 12q2.55 0 4.275 1.725Q30 15.45 30 18q0 2.5-1.725 4.25T24 24Zm0-9q-1.25 0-2.125.85T21 18q0 1.25.875 2.125T24 21q1.3 0 2.15-.875Q27 19.25 27 18q0-1.3-.85-2.15Q25.3 15 24 15Zm0 18Zm0-15Z"/>

</symbol>
<symbol id="groups" viewBox="0 0 14 14">
  <rect width="12.091" height="4.455" x=".931" y="8.016" stroke="currentColor" fill="none" rx=".5"/>
  <rect width="12.091" height="4.455" x=".931" y="1.471" stroke="currentColor" fill="none" rx=".5"/>
  <circle cx="3.159" cy="3.698" r=".545" fill="currentColor"/>
  <circle cx="3.159" cy="10.244" r=".545" fill="currentColor"/>

</symbol>
<symbol id="health" viewBox="0 0 24 24">
<path fill="currentColor" d="M16 13c3.09-2.81 6-5.44 6-7.7C22 3.45 20.55 2 18.7 2c-1.04 0-2.05.49-2.7 1.25C15.34 2.49 14.34 2 13.3 2 11.45 2 10 3.45 10 5.3c0 2.26 2.91 4.89 6 7.7zm-2.7-9c.44 0 .89.21 1.18.55L16 6.34l1.52-1.79c.29-.34.74-.55 1.18-.55.74 0 1.3.56 1.3 1.3 0 1.12-2.04 3.17-4 4.99-1.96-1.82-4-3.88-4-4.99 0-.74.56-1.3 1.3-1.3zM19 16h-2c0-1.2-.75-2.28-1.87-2.7L8.97 11H1v11h6v-1.44l7 1.94 8-2.5v-1c0-1.66-1.34-3-3-3zM3 20v-7h2v7H3zm10.97.41L7 18.48V13h1.61l5.82 2.17c.34.13.57.46.57.83 0 0-1.99-.05-2.3-.15l-2.38-.79-.63 1.9 2.38.79c.51.17 1.04.26 1.58.26H19c.39 0 .74.23.9.56l-5.93 1.84z"/>

</symbol>
<symbol id="herramientas" viewBox="0 0 24 24">
  <path fill="currentColor" d="M20 8h-3V6c0-1.1-.9-2-2-2H9c-1.1 0-2 .9-2 2v2H4c-1.1 0-2 .9-2 2v10h20V10c0-1.1-.9-2-2-2zM9 6h6v2H9V6zm11 12H4v-3h2v1h2v-1h8v1h2v-1h2v3zm-2-5v-1h-2v1H8v-1H6v1H4v-3h16v3h-2z"/>

</symbol>
<symbol id="home" viewBox="0 0 22 22">
  <path d="M2.75 8.25L11 1.833l8.25 6.417v10.083a1.833 1.833 0 01-1.833 1.834H4.583a1.833 1.833 0 01-1.833-1.834V8.25z" stroke="currentColor" fill="none" stroke-width="2" stroke-linecap="round" stroke-linejoin="round"/>
  <path d="M8.25 20.167V11h5.5v9.167" stroke="currentColor" fill="none" stroke-width="2" stroke-linecap="round" stroke-linejoin="round"/>

</symbol>
<symbol id="hub" viewBox="0 0 24 24">
  <path fill="none" d="M0 0h24v24H0V0z"/>
  <path fill="currentColor" stroke="null" d="M19.519 7.94a2.503 2.432 0 0 0-2.498 2.607l-1.696.552a3.732 3.627 0 0 0-2.69-1.884V7.462a2.52 2.45 0 0 0 1.871-2.363c0-1.348-1.12-2.436-2.506-2.436S9.494 3.751 9.494 5.1c0 1.137.802 2.086 1.88 2.363v1.753a3.728 3.745 0 0 0-2.69 1.884l-1.705-.552c.01-.057.01-.114.01-.171 0-1.348-1.12-2.436-2.508-2.436S1.975 9.03 1.975 10.376s1.12 2.436 2.506 2.436A2.539 2.55 0 0 0 6.587 11.7l1.695.551a3.568 3.584 0 0 0 .91 2.997l-1.177 1.437a2.44 2.45 0 0 0-1.027-.219c-1.388 0-2.507 1.088-2.507 2.435s1.12 2.436 2.507 2.436 2.506-1.088 2.506-2.436c0-.552-.184-1.056-.502-1.461l1.18-1.438a3.869 3.887 0 0 0 3.649 0l1.178 1.438a2.377 2.388 0 0 0-.493 1.46c0 1.349 1.12 2.437 2.506 2.437s2.507-1.088 2.507-2.436-1.12-2.436-2.507-2.436c-.368 0-.71.073-1.027.212l-1.179-1.438a3.751 3.645 0 0 0 .912-2.996l1.695-.552a2.526 2.538 0 0 0 2.106 1.112c1.386 0 2.506-1.087 2.506-2.435s-1.12-2.428-2.506-2.428zM4.48 11.19c-.458 0-.835-.366-.835-.813s.377-.81.835-.81.836.363.836.81-.376.812-.836.812zm2.507 8.523c-.46 0-.835-.364-.835-.81s.375-.813.835-.813.836.365.836.812-.377.811-.836.811zM11.166 5.1c0-.446.375-.812.835-.812s.835.365.835.811-.375.813-.835.813-.835-.365-.835-.812zM12 14.842a2.088 2.03 0 0 1 0-4.06 2.088 2.03 0 0 1 0 4.06zm5.012 3.247c.46 0 .835.365.835.812s-.376.812-.835.812-.836-.365-.836-.811.377-.813.836-.813zm2.507-6.9c-.46 0-.836-.366-.836-.813s.376-.81.836-.81.835.364.835.81-.377.812-.835.812z"/>

</symbol>
<symbol id="info" viewBox="0 0 24 24">
  <path fill="none" d="M0 0h24v24H0V0z"/>
  <path fill="currentColor" d="M11 7h2v2h-2zm0 4h2v6h-2zm1-9C6.48 2 2 6.48 2 12s4.48 10 10 10 10-4.48 10-10S17.52 2 12 2zm0 18c-4.41 0-8-3.59-8-8s3.59-8 8-8 8 3.59 8 8-3.59 8-8 8z"/>

</symbol>
<symbol id="job" viewBox="0 0 512 512">
<!--! Font Awesome Pro 6.3.0 by @fontawesome - https://fontawesome.com License - https://fontawesome.com/license (Commercial License) Copyright 2023 Fonticons, Inc.-->
  <path fill="currentColor" d="M78.6 5C69.1-2.4 55.6-1.5 47 7L7 47c-8.5 8.5-9.4 22-2.1 31.6l80 104c4.5 5.9 11.6 9.4 19 9.4h54.1l109 109c-14.7 29-10 65.4 14.3 89.6l112 112c12.5 12.5 32.8 12.5 45.3 0l64-64c12.5-12.5 12.5-32.8 0-45.3l-112-112c-24.2-24.2-60.6-29-89.6-14.3l-109-109V104c0-7.5-3.5-14.5-9.4-19L78.6 5zM19.9 396.1C7.2 408.8 0 426.1 0 444.1C0 481.6 30.4 512 67.9 512c18 0 35.3-7.2 48-19.9L233.7 374.3c-7.8-20.9-9-43.6-3.6-65.1l-61.7-61.7L19.9 396.1zM512 144c0-10.5-1.1-20.7-3.2-30.5c-2.4-11.2-16.1-14.1-24.2-6l-63.9 63.9c-3 3-7.1 4.7-11.3 4.7H352c-8.8 0-16-7.2-16-16V102.6c0-4.2 1.7-8.3 4.7-11.3l63.9-63.9c8.1-8.1 5.2-21.8-6-24.2C388.7 1.1 378.5 0 368 0C288.5 0 224 64.5 224 144l0 .8 85.3 85.3c36-9.1 75.8 .5 104 28.7L429 274.5c49-23 83-72.8 83-130.5zM56 432a24 24 0 1 1 48 0 24 24 0 1 1 -48 0z"/>

</symbol>
<symbol id="kanban" viewBox="0 0 17 17">
  <path fill="currentColor" d="M6.375 5.313H5.312v7.083h1.063V5.312ZM9.031 5.313H7.97v3.541H9.03V5.313ZM11.688 5.313h-1.063v5.666h1.063V5.313Z"/>
  <path fill="currentColor" d="M13.458 2.125H3.542a1.42 1.42 0 0 0-1.417 1.417v9.916c0 .78.638 1.417 1.417 1.417h9.916a1.42 1.42 0 0 0 1.417-1.417V3.542a1.42 1.42 0 0 0-1.417-1.417Zm.354 11.688H3.188V3.187h10.624v10.626Z"/>

</symbol>
<symbol id="label-new" viewBox="0 0 24 24">
  <path fill="none" d="M0 0h24v24H0z"/>
  <path fill="currentColor" d="m21 12-4.37 6.16c-.37.52-.98.84-1.63.84h-3v-2h3l3.55-5L15 7H5v3H3V7c0-1.1.9-2 2-2h10c.65 0 1.26.31 1.63.84L21 12zm-11 3H7v-3H5v3H2v2h3v3h2v-3h3v-2z"/>

</symbol>
<symbol id="label" viewBox="0 0 24 24">
  <path fill="none" d="M0 0h24v24H0V0z"/>
  <path fill="currentColor" d="M17.63 5.84C17.27 5.33 16.67 5 16 5L5 5.01C3.9 5.01 3 5.9 3 7v10c0 1.1.9 1.99 2 1.99L16 19c.67 0 1.27-.33 1.63-.84L22 12l-4.37-6.16zM16 17H5V7h11l3.55 5L16 17z"/>

</symbol>
<symbol id="link" viewBox="0 0 24 24">
  <path fill="currentColor" d="M17 7h-4v2h4c1.65 0 3 1.35 3 3s-1.35 3-3 3h-4v2h4c2.76 0 5-2.24 5-5s-2.24-5-5-5zm-6 8H7c-1.65 0-3-1.35-3-3s1.35-3 3-3h4V7H7c-2.76 0-5 2.24-5 5s2.24 5 5 5h4v-2zm-3-4h8v2H8z"/>

</symbol>
<symbol id="loading" viewBox="0 0 35 35">
  <path fill="currentColor" fill-opacity="1" d="M17.198 0c-.692.26-1.21.605-1.296 1.383v7.086c0 1.037.691 1.815 1.728 1.815.95 0 1.728-.778 1.728-1.815V2.16c0-1.037-.345-1.814-1.382-2.16h-.778z"/>
  <path fill="currentColor" fill-opacity="0.875" d="M11.408 12.877c.518 0 1.037-.346 1.296-.951a1.739 1.739 0 00-.26-1.815 6.907 6.907 0 00-1.123-1.123L7.52 5.185C7 4.667 6.395 4.494 5.79 4.753c-.691.173-1.037.605-1.123 1.296a1.594 1.594 0 00.432 1.383l4.926 4.926c.345.346.691.519 1.383.519z"/>
  <path fill="currentColor" fill-opacity="0.74" d="M5.099 15.815H1.815C.778 15.815 0 16.506 0 17.543c0 .95.778 1.729 1.815 1.729h6.654c1.037 0 1.815-.692 1.815-1.729 0-.95-.778-1.728-1.815-1.728H5.1z"/>
  <path fill="currentColor" fill-opacity="0.608" d="M4.666 28.691c0 .692.346 1.297 1.037 1.556.692.26 1.297.173 1.902-.346l2.074-2.074 2.592-2.592c.692-.692.778-1.815.087-2.507-.692-.691-1.729-.691-2.507.087l-4.58 4.58c-.345.26-.605.691-.605 1.296z"/>
  <path fill="currentColor" fill-opacity="0.335" d="M23.852 22.123c-.691 0-1.21.346-1.555 1.038-.26.69-.173 1.296.259 1.814.26.26.518.519.778.865l4.061 4.061c.951.95 2.507.519 2.852-.691.173-.605 0-1.21-.432-1.728l-1.469-1.47-3.198-3.197c-.345-.519-.777-.692-1.296-.692z"/>
  <path fill="currentColor" fill-opacity="0.335" d="M19.186 29.815V26.53c0-1.037-.692-1.815-1.729-1.815-.95 0-1.728.778-1.728 1.815v6.654c0 1.037.691 1.815 1.728 1.815.95 0 1.729-.778 1.729-1.815v-3.37z"/>
  <path fill="currentColor" fill-opacity="0.195" d="M35 17.111c-.26-.691-.605-1.21-1.383-1.296h-7.086c-1.037 0-1.815.691-1.815 1.728 0 .95.778 1.729 1.815 1.729h6.309c1.036 0 1.814-.346 2.16-1.383v-.778z"/>
  <path fill="currentColor" fill-opacity="0.057" d="M22.123 11.148c0 .692.346 1.297 1.037 1.556.692.26 1.297.173 1.902-.346a14062.787 14062.787 0 014.84-4.84c.518-.518.604-1.123.431-1.728-.26-.691-.691-1.037-1.382-1.21a1.594 1.594 0 00-1.383.432l-4.926 4.926a1.706 1.706 0 00-.519 1.21z"/>

</symbol>
<symbol id="lock" viewBox="0 0 16 16">
  <path fill="currentColor" stroke="null" d="M12.252 5.783h-.71V4.547a3.545 3.093 0 0 0-7.085 0v1.236h-.709c-.78 0-1.417.557-1.417 1.236v6.184c0 .68.638 1.236 1.417 1.236h8.504c.78 0 1.417-.557 1.417-1.236V7.02c0-.68-.638-1.237-1.417-1.237zM5.874 4.547c0-1.027.95-1.855 2.126-1.855s2.126.828 2.126 1.855v1.236H5.874V4.547zm6.378 8.656H3.748V7.02h8.504v6.183zM8 11.348c.78 0 1.417-.557 1.417-1.236S8.779 8.874 8 8.874s-1.417.557-1.417 1.238c0 .68.638 1.236 1.417 1.236z"/>

</symbol>
<symbol id="login" viewBox="0 0 48 48">
  <path fill="currentColor" d="M24.45 42v-3H39V9H24.45V6H39q1.2 0 2.1.9.9.9.9 2.1v30q0 1.2-.9 2.1-.9.9-2.1.9Zm-3.9-9.25L18.4 30.6l5.1-5.1H6v-3h17.4l-5.1-5.1 2.15-2.15 8.8 8.8Z"/>

</symbol>
<symbol id="logout" viewBox="0 0 12 12">
  <path fill="none" stroke="currentColor" stroke-linecap="round" stroke-linejoin="round" d="M6 1.5H2a.947.947 0 0 0-.707.33A1.2 1.2 0 0 0 1 2.625v6.75c0 .299.105.586.293.796a.95.95 0 0 0 .707.33h4m3-2.25L11 6 9 3.75M11 6H4.5"/>

</symbol>
<symbol id="long-bus-side" viewBox="0 0 24 24">
  <path fill="currentColor" d="M3 6c-1.11 0-2 .89-2 2v7h2a3 3 0 0 0 3 3 3 3 0 0 0 3-3h6a3 3 0 0 0 3 3 3 3 0 0 0 3-3h2V8c0-1.11-.89-2-2-2H3m-.5 1.5h4V10h-4V7.5m5.5 0h4V10H8V7.5m5.5 0h4V10h-4V7.5m5.5 0h2.5V13L19 11V7.5m-13 6A1.5 1.5 0 0 1 7.5 15 1.5 1.5 0 0 1 6 16.5 1.5 1.5 0 0 1 4.5 15 1.5 1.5 0 0 1 6 13.5m12 0a1.5 1.5 0 0 1 1.5 1.5 1.5 1.5 0 0 1-1.5 1.5 1.5 1.5 0 0 1-1.5-1.5 1.5 1.5 0 0 1 1.5-1.5Z"/>

</symbol>
<symbol id="long-truck-side" viewBox="0 0 640 512">
  <path fill="currentColor" d="M64 32C28.7 32 0 60.7 0 96v304c0 44.2 35.8 80 80 80 26.2 0 49.4-12.6 64-32 14.6 19.4 37.8 32 64 32 44.2 0 80-35.8 80-80 0-5.5-.6-10.8-1.6-16h163.2c-1 5.2-1.6 10.5-1.6 16 0 44.2 35.8 80 80 80s80-35.8 80-80c0-5.5-.6-10.8-1.6-16h1.6c17.7 0 32-14.3 32-32v-90.3c0-9.2-3.2-18.2-9-25.3l-58.8-71.8c-10.6-13-26.5-20.5-43.3-20.5H480V96c0-35.3-28.7-64-64-64H64zm521 224H480v-64h48.8c2.4 0 4.7 1.1 6.2 2.9l50 61.1zm-57 176c-17.7 0-32-14.3-32-32s14.3-32 32-32 32 14.3 32 32-14.3 32-32 32zm-288-32c0 17.7-14.3 32-32 32s-32-14.3-32-32 14.3-32 32-32 32 14.3 32 32zM80 432c-17.7 0-32-14.3-32-32s14.3-32 32-32 32 14.3 32 32-14.3 32-32 32z"/>

</symbol>
<symbol id="mail" viewBox="0 0 24 24">
  <path fill="none" d="M0 0h24v24H0V0z"/>
  <path fill="currentColor" d="M22 6c0-1.1-.9-2-2-2H4c-1.1 0-2 .9-2 2v12c0 1.1.9 2 2 2h16c1.1 0 2-.9 2-2V6zm-2 0-8 4.99L4 6h16zm0 12H4V8l8 5 8-5v10z"/>

</symbol>
<symbol id="menu" viewBox="0 0 24 24">
  <path fill="currentColor" d="M3 18h18v-2H3v2zm0-5h18v-2H3v2zm0-7v2h18V6H3z"/>

</symbol>
<symbol id="minus" viewBox="0 0 22 22">
  <path d="M4.583 11h12.834" stroke="currentColor" stroke-width="2" stroke-linecap="round" stroke-linejoin="round"/>

</symbol>
<symbol id="more-vertical" viewBox="0 0 24 24">
  <path stroke="currentColor" stroke-linecap="round" stroke-linejoin="round" stroke-width="2" d="M12 13a1 1 0 1 0 0-2 1 1 0 0 0 0 2ZM12 6a1 1 0 1 0 0-2 1 1 0 0 0 0 2ZM12 20a1 1 0 1 0 0-2 1 1 0 0 0 0 2Z"/>

</symbol>
<symbol id="more" viewBox="0 0 24 24">
  <path fill="currentColor" d="M6 10c-1.1 0-2 .9-2 2s.9 2 2 2 2-.9 2-2-.9-2-2-2Zm12 0c-1.1 0-2 .9-2 2s.9 2 2 2 2-.9 2-2-.9-2-2-2Zm-6 0c-1.1 0-2 .9-2 2s.9 2 2 2 2-.9 2-2-.9-2-2-2Z"/>

</symbol>
<symbol id="motorbike-side" viewBox="0 0 640 512">
<!--! Font Awesome Pro 6.2.1 by @fontawesome - https://fontawesome.com License - https://fontawesome.com/license (Commercial License) Copyright 2022 Fonticons, Inc.-->
  <path fill="currentColor" d="M280 32c-13.3 0-24 10.7-24 24s10.7 24 24 24h57.7l16.4 30.3L256 192l-45.3-45.3c-12-12-28.3-18.7-45.3-18.7H64c-17.7 0-32 14.3-32 32v32h96c88.4 0 160 71.6 160 160 0 11-1.1 21.7-3.2 32h70.4c-2.1-10.3-3.2-21-3.2-32 0-52.2 25-98.6 63.7-127.8l15.4 28.6C402.4 276.3 384 312 384 352c0 70.7 57.3 128 128 128s128-57.3 128-128-57.3-128-128-128c-13.5 0-26.5 2.1-38.7 6l-55.1-102H480c17.7 0 32-14.3 32-32V64c0-17.7-14.3-32-32-32h-20.4c-7.5 0-14.7 2.6-20.5 7.4l-47.4 39.5-14-26c-7-12.9-20.5-21-35.2-21H280zm182.7 279.2 28.2 52.2c6.3 11.7 20.9 16 32.5 9.7s16-20.9 9.7-32.5l-28.2-52.2c2.3-.3 4.7-.4 7.1-.4 35.3 0 64 28.7 64 64s-28.7 64-64 64-64-28.7-64-64c0-15.5 5.5-29.7 14.7-40.8zM187.3 376c-9.5 23.5-32.5 40-59.3 40-35.3 0-64-28.7-64-64s28.7-64 64-64c26.9 0 49.9 16.5 59.3 40h66.4c-11.2-59.2-63.2-104-125.7-104C57.3 224 0 281.3 0 352s57.3 128 128 128c62.5 0 114.5-44.8 125.8-104h-66.5zm-59.3 8c17.7 0 32-14.3 32-32s-14.3-32-32-32-32 14.3-32 32 14.3 32 32 32z"/>

</symbol>
<symbol id="motorcycle" viewBox="0 0 24 24">
<path fill="currentColor" d="M4.17 11H4h.17m9.24-6H9v2h3.59l2 2H11l-4 2-2-2H0v2h4c-2.21 0-4 1.79-4 4s1.79 4 4 4 4-1.79 4-4l2 2h3l3.49-6.1 1.01 1.01c-.91.73-1.5 1.84-1.5 3.09 0 2.21 1.79 4 4 4s4-1.79 4-4-1.79-4-4-4c-.18 0-.36.03-.53.05L17.41 9H20V6l-3.72 1.86L13.41 5zM20 17c-1.1 0-2-.9-2-2s.9-2 2-2 2 .9 2 2-.9 2-2 2zM4 17c-1.1 0-2-.9-2-2s.9-2 2-2 2 .9 2 2-.9 2-2 2z"/>

</symbol>
<symbol id="offer" viewBox="0 0 22 22">
<path fill="currentColor" d="M7.333 14.667h7.334V16.5H7.333v-1.833Zm0-3.667h7.334v1.833H7.333V11Zm5.5-9.167H5.5a1.839 1.839 0 0 0-1.833 1.834v14.666a1.83 1.83 0 0 0 1.824 1.834H16.5a1.839 1.839 0 0 0 1.833-1.834v-11l-5.5-5.5Zm3.667 16.5h-11V3.667h6.417V8.25H16.5v10.083Z"/>

</symbol>
<symbol id="open" viewBox="0 0 48 48">
  <path fill="currentColor" d="M9 42q-1.2 0-2.1-.9Q6 40.2 6 39V9q0-1.2.9-2.1Q7.8 6 9 6h13.95v3H9v30h30V25.05h3V39q0 1.2-.9 2.1-.9.9-2.1.9Zm10.1-10.95L17 28.9 36.9 9H25.95V6H42v16.05h-3v-10.9Z"/>

</symbol>
<symbol id="opportunity" viewBox="0 0 24 24">
  <path fill="currentColor" d="M9 21c0 .55.45 1 1 1h4c.55 0 1-.45 1-1v-1H9v1Zm3-19C8.14 2 5 5.14 5 9c0 2.38 1.19 4.47 3 5.74V17c0 .55.45 1 1 1h6c.55 0 1-.45 1-1v-2.26c1.81-1.27 3-3.36 3-5.74 0-3.86-3.14-7-7-7Zm2.85 11.1-.85.6V16h-4v-2.3l-.85-.6A4.997 4.997 0 0 1 7 9c0-2.76 2.24-5 5-5s5 2.24 5 5c0 1.63-.8 3.16-2.15 4.1Z"/>

</symbol>
<symbol id="options" viewBox="0 0 48 48">
  <path fill="currentColor" d="m28.4 39.65-2.1-2.1L31.9 32l-5.6-5.55 2.1-2.1L34 29.9l5.55-5.55 2.1 2.1L36.1 32l5.55 5.55-2.1 2.1L34 34.1ZM4 33.5v-3h18v3Zm29.1-12.2-6.8-6.8 2.1-2.1 4.65 4.65L41.9 8.2l2.1 2.15ZM4 17.5v-3h18v3Z"/>

</symbol>
<symbol id="outgoing-mail" viewBox="0 0 48 48">
  <path fill="currentColor" d="m38.7 41.95-2.1-2.1 3.65-3.7H31.2v-3h9.05l-3.65-3.7 2.1-2.1 7.3 7.3ZM7 38q-1.25 0-2.125-.875T4 35V13q0-1.25.875-2.125T7 10h28q1.25 0 2.125.875T38 13v9h-3v-6.65L20.8 25.4 7 15.4V35h19v3Zm1.8-25 12 8.7L33.1 13Z"/>

</symbol>
<symbol id="paperclip" viewBox="0 0 448 512">
  <path fill="currentColor" d="M360.2 83.8c-24.4-24.4-64-24.4-88.4 0l-184 184c-42.1 42.1-42.1 110.3 0 152.4s110.3 42.1 152.4 0l152-152c10.9-10.9 28.7-10.9 39.6 0s10.9 28.7 0 39.6l-152 152c-64 64-167.6 64-231.6 0s-64-167.6 0-231.6l184-184c46.3-46.3 121.3-46.3 167.6 0s46.3 121.3 0 167.6l-176 176c-28.6 28.6-75 28.6-103.6 0s-28.6-75 0-103.6l144-144c10.9-10.9 28.7-10.9 39.6 0s10.9 28.7 0 39.6l-144 144c-6.7 6.7-6.7 17.7 0 24.4s17.7 6.7 24.4 0l176-176c24.4-24.4 24.4-64 0-88.4z"/>

</symbol>
<symbol id="patrimonial" viewBox="0 0 23 23">
<path fill="currentColor" d="M17.917 8.525V3.667h-2.75V6.05L11.5 2.75 2.334 11h2.75v7.333h5.5v-5.5h1.833v5.5h5.5V11h2.75l-2.75-2.475ZM16.083 16.5H14.25V11h-5.5v5.5H6.917V9.34L11.5 5.217l4.584 4.125V16.5Z"/>
<path fill="currentColor" d="M9.667 9.167h3.667A1.839 1.839 0 0 0 11.5 7.333a1.839 1.839 0 0 0-1.833 1.834Z"/>

</symbol>
<symbol id="people" viewBox="0 0 640 512">
  <path fill="currentColor" d="M160 0a64 64 0 1 1 0 128A64 64 0 1 1 160 0zM88 480V400H70.2c-10.9 0-18.6-10.7-15.2-21.1l31.1-93.4L57.5 323.3c-10.7 14.1-30.8 16.8-44.8 6.2s-16.8-30.7-6.2-44.8L65.4 207c22.4-29.6 57.5-47 94.6-47s72.2 17.4 94.6 47l58.9 77.7c10.7 14.1 7.9 34.2-6.2 44.8s-34.2 7.9-44.8-6.2l-28.6-37.8L265 378.9c3.5 10.4-4.3 21.1-15.2 21.1H232v80c0 17.7-14.3 32-32 32s-32-14.3-32-32V400H152v80c0 17.7-14.3 32-32 32s-32-14.3-32-32zM480 0a64 64 0 1 1 0 128A64 64 0 1 1 480 0zm-8 384v96c0 17.7-14.3 32-32 32s-32-14.3-32-32V300.5L395.1 321c-9.4 15-29.2 19.4-44.1 10s-19.4-29.2-10-44.1l51.7-82.1c17.6-27.9 48.3-44.9 81.2-44.9h12.3c33 0 63.7 16.9 81.2 44.9L619.1 287c9.4 15 4.9 34.7-10 44.1s-34.7 4.9-44.1-10L552 300.5V480c0 17.7-14.3 32-32 32s-32-14.3-32-32V384H472z"/>

</symbol>
<symbol id="phone" viewBox="0 0 48 48">
  <path fill="currentColor" d="M39.75 42q-6.1 0-12.125-3T16.8 31.2Q12 26.4 9 20.375 6 14.35 6 8.25q0-.95.65-1.6Q7.3 6 8.25 6h7q.7 0 1.225.475.525.475.675 1.275l1.35 6.3q.1.7-.025 1.275t-.525.975l-5 5.05q2.8 4.65 6.275 8.1Q22.7 32.9 27.1 35.3l4.75-4.9q.5-.55 1.15-.775.65-.225 1.3-.075l5.95 1.3q.75.15 1.25.75T42 33v6.75q0 .95-.65 1.6-.65.65-1.6.65Zm-28.3-23.4 4.05-4.1L14.35 9H9q0 1.95.6 4.275t1.85 5.325ZM39 39v-5.35l-5.15-1.05-3.95 4.15q2.05.95 4.45 1.55 2.4.6 4.65.7Zm-9.1-2.25ZM11.45 18.6Z"/>

</symbol>
<symbol id="piggy-bank" viewBox="0 0 23 23">
<path fill="currentColor" d="M14.85 8.6c0-.522.428-.95.95-.95.523 0 .95.428.95.95 0 .523-.427.95-.95.95a.953.953 0 0 1-.95-.95ZM8.2 7.65h4.75v-1.9H8.2v1.9Zm13.3-1.425v6.622l-2.679.893-1.596 5.31H12v-1.9h-1.9v1.9H4.875S2.5 11.013 2.5 8.125A5.222 5.222 0 0 1 7.725 2.9h4.75a4.745 4.745 0 0 1 3.8-1.9 1.423 1.423 0 0 1 1.311 1.976 4.592 4.592 0 0 0-.304 1.093l2.157 2.156H21.5Zm-1.9 1.9h-.95L15.325 4.8c0-.617.086-1.225.247-1.814A2.865 2.865 0 0 0 13.586 4.8H7.725A3.329 3.329 0 0 0 4.4 8.125c0 1.786 1.159 6.318 1.91 9.025H8.2v-1.9h5.7v1.9h1.91l1.472-4.892 2.318-.78V8.126Z"/>

</symbol>
<symbol id="pin" viewBox="0 0 24 24">
  <path fill="currentColor" d="M14 4v5c0 1.12.37 2.16 1 3H9c.65-.86 1-1.9 1-3V4h4Zm3-2H7c-.55 0-1 .45-1 1s.45 1 1 1h1v5c0 1.66-1.34 3-3 3v2h5.97v7l1 1 1-1v-7H19v-2c-1.66 0-3-1.34-3-3V4h1c.55 0 1-.45 1-1s-.45-1-1-1Z"/>

</symbol>
<symbol id="policy" viewBox="0 0 48 48">
  <path fill="currentColor" d="M24 28.3q1.85 0 3.15-1.275 1.3-1.275 1.3-3.175 0-1.85-1.3-3.15-1.3-1.3-3.15-1.3-1.85 0-3.15 1.3-1.3 1.3-1.3 3.15 0 1.9 1.3 3.175T24 28.3Zm0 12.6q2.35-.8 4.8-2.525 2.45-1.725 3.95-3.925l-4.6-4.4q-.95.55-2 .9T24 31.3q-3.1 0-5.275-2.15-2.175-2.15-2.175-5.3 0-3.1 2.175-5.275Q20.9 16.4 24 16.4q3.1 0 5.275 2.175Q31.45 20.75 31.45 23.9q0 1.05-.3 2.1t-.95 1.9l4.2 4q1.2-2.15 1.9-4.725.7-2.575.7-5.275V12L24 7.25 11 12v9.9q0 6.55 3.625 11.825Q18.25 39 24 40.9Zm0 3.1q-7-1.75-11.5-8.125T8 21.9V10l16-6 16 6v11.9q0 7.6-4.5 13.975T24 44Zm0-19.95Z"/>

</symbol>
<symbol id="question-circle" viewBox="0 0 512 512">
  <path fill="currentColor" d="M504 256a248 248 0 1 1-496 0 248 248 0 0 1 496 0zM263 90c-55 0-90 23-117 64-3 5-2 12 3 16l35 26c5 4 12 3 16-2 18-22 30-36 57-36 21 0 46 14 46 33 0 15-12 23-32 34-24 14-55 30-55 71v4c0 7 5 12 12 12h56c7 0 12-5 12-12v-1c0-29 83-30 83-107 0-58-60-102-116-102zm-7 248a46 46 0 1 0 0 92 46 46 0 0 0 0-92z"/>

</symbol>
<symbol id="quote" viewBox="0 0 48 48">
  <path fill="currentColor" d="M11 44q-1.2 0-2.1-.9Q8 42.2 8 41V7q0-1.2.9-2.1Q9.8 4 11 4h18.05L40 14.95V41q0 1.2-.9 2.1-.9.9-2.1.9Zm0-29.05V7v34-26.05Zm11.5 23v-2H18v-3h9v-3.5h-7.5q-.65 0-1.075-.425Q18 28.6 18 27.95v-6.5q0-.65.425-1.075.425-.425 1.075-.425h3v-2h3v2H30v3h-9v3.5h7.5q.65 0 1.075.425Q30 27.3 30 27.95v6.5q0 .65-.425 1.075-.425.425-1.075.425h-3v2Zm4.05-23V7H11v34h26V14.95Z"/>

</symbol>
<symbol id="refresh" viewBox="0 0 24 24">
  <path fill="currentColor" d="M17.65 6.35A7.958 7.958 0 0 0 12 4c-4.42 0-7.99 3.58-7.99 8s3.57 8 7.99 8c3.73 0 6.84-2.55 7.73-6h-2.08A5.99 5.99 0 0 1 12 18c-3.31 0-6-2.69-6-6s2.69-6 6-6c1.66 0 3.14.69 4.22 1.78L13 11h7V4l-2.35 2.35z"/>

</symbol>
<symbol id="relation-add" viewBox="0 0 48 48">
  <path fill="currentColor" d="M23.7 23.7q1.3-1.6 1.925-3.3.625-1.7.625-3.95t-.625-3.95Q25 10.8 23.7 9.2q3.8-.85 6.675 1.15t2.875 6.1q0 4.1-2.875 6.1T23.7 23.7ZM34.5 40v-4.7q0-2.55-1.3-4.75t-4.5-3.7q8.65 1.1 11.825 3.2 3.175 2.1 3.175 5.25V40ZM40 25.55v-5h-5v-3h5v-5h3v5h5v3h-5v5Zm-24.25-1.6q-3.3 0-5.4-2.1-2.1-2.1-2.1-5.4 0-3.3 2.1-5.4 2.1-2.1 5.4-2.1 3.3 0 5.4 2.1 2.1 2.1 2.1 5.4 0 3.3-2.1 5.4-2.1 2.1-5.4 2.1ZM0 40v-4.7q0-1.75.925-3.175Q1.85 30.7 3.4 30q3.6-1.6 6.425-2.3 2.825-.7 5.925-.7 3.1 0 5.9.7 2.8.7 6.4 2.3 1.55.7 2.5 2.125t.95 3.175V40Zm15.75-19.05q1.95 0 3.225-1.275Q20.25 18.4 20.25 16.45q0-1.95-1.275-3.225Q17.7 11.95 15.75 11.95q-1.95 0-3.225 1.275Q11.25 14.5 11.25 16.45q0 1.95 1.275 3.225Q13.8 20.95 15.75 20.95ZM3 37h25.5v-1.7q0-.8-.4-1.5t-1.25-1.1Q23.4 31.1 21 30.55 18.6 30 15.75 30t-5.225.55Q8.15 31.1 4.6 32.7q-.75.35-1.175 1.075Q3 34.5 3 35.3Zm12.75-20.55Zm0 20.55Z"/>

</symbol>
<symbol id="reply" viewBox="0 0 512 512">
  <path fill="currentColor" stroke="null" d="m38.563 195.678 154.35-139.092c14.03-11.896 35.079-2.745 35.079 16.471v73.207c141.194 1.83 252.57 31.112 252.57 170.204 0 56.735-35.079 112.555-72.789 140.923-12.278 9.15-28.94-1.83-24.555-16.472 39.464-132.686-19.294-168.374-155.226-170.204v80.526c0 19.217-21.048 28.368-35.08 16.472L38.563 228.62a21.048 21.962 0 0 1 0-32.943z"/>

</symbol>
<symbol id="robot" viewBox="0 0 24 24">
  <path fill="none" d="M0 0h24v24H0z"/>
  <path fill="currentColor" d="M20 9V7c0-1.1-.9-2-2-2h-3c0-1.66-1.34-3-3-3S9 3.34 9 5H6c-1.1 0-2 .9-2 2v2c-1.66 0-3 1.34-3 3s1.34 3 3 3v4c0 1.1.9 2 2 2h12c1.1 0 2-.9 2-2v-4c1.66 0 3-1.34 3-3s-1.34-3-3-3zm-2 10H6V7h12v12zm-9-6c-.83 0-1.5-.67-1.5-1.5S8.17 10 9 10s1.5.67 1.5 1.5S9.83 13 9 13zm7.5-1.5c0 .83-.67 1.5-1.5 1.5s-1.5-.67-1.5-1.5.67-1.5 1.5-1.5 1.5.67 1.5 1.5zM8 15h8v2H8v-2z"/>

</symbol>
<symbol id="save-as" viewBox="0 0 24 24">
  <path fill="none" d="M0 0h24v24H0z"/>
  <path fill="currentColor" d="M21 12.4V7l-4-4H5a2 2 0 0 0-2 2v14a2 2 0 0 0 2 2h7.4l2-2H5V5h11.17L19 7.83v6.57l2-2zM15 15c0 1.66-1.34 3-3 3s-3-1.34-3-3 1.34-3 3-3 3 1.34 3 3zM6 6h9v4H6V6zm13.99 10.25 1.77 1.77L16.77 23H15v-1.77l4.99-4.98zm3.26.26-.85.85-1.77-1.77.85-.85c.2-.2.51-.2.71 0l1.06 1.06c.2.2.2.52 0 .71z"/>

</symbol>
<symbol id="save" viewBox="0 0 24 24">
  <path fill="none" d="M0 0h24v24H0V0z"/>
  <path fill="currentColor" d="M17 3H5a2 2 0 0 0-2 2v14a2 2 0 0 0 2 2h14c1.1 0 2-.9 2-2V7l-4-4zm2 16H5V5h11.17L19 7.83V19zm-7-7c-1.66 0-3 1.34-3 3s1.34 3 3 3 3-1.34 3-3-1.34-3-3-3zM6 6h9v4H6z"/>

</symbol>
<symbol id="search" viewBox="0 0 20 20">
  <path d="M9.083 16.417a7.333 7.333 0 100-14.667 7.333 7.333 0 000 14.667z" stroke="currentColor" fill="none" stroke-width="2" stroke-linecap="round" stroke-linejoin="round"/>
  <path d="M18.25 18.25l-3.988-3.988" stroke="currentColor" stroke-width="2" stroke-linecap="round" stroke-linejoin="round"/>

</symbol>
<symbol id="settings" viewBox="0 0 22 22">
  <g clip-path="url(#clip0_143_378)" stroke="currentColor" fill="none" stroke-width="2" stroke-linecap="round" stroke-linejoin="round">
    <path d="M11 13.75a2.75 2.75 0 100-5.5 2.75 2.75 0 000 5.5z"/>
    <path d="M17.783 13.75a1.513 1.513 0 00.303 1.668l.055.055a1.834 1.834 0 11-2.594 2.594l-.055-.055a1.512 1.512 0 00-1.669-.302 1.513 1.513 0 00-.916 1.384v.156a1.833 1.833 0 01-3.667 0v-.082a1.513 1.513 0 00-.99-1.385 1.513 1.513 0 00-1.668.303l-.055.055a1.833 1.833 0 11-2.595-2.594l.055-.055a1.512 1.512 0 00.303-1.669 1.512 1.512 0 00-1.384-.916H2.75a1.833 1.833 0 110-3.667h.082a1.512 1.512 0 001.385-.99 1.512 1.512 0 00-.303-1.668l-.055-.055a1.833 1.833 0 112.594-2.595l.055.055a1.512 1.512 0 001.669.303h.073a1.513 1.513 0 00.917-1.384V2.75a1.833 1.833 0 113.666 0v.082a1.512 1.512 0 00.917 1.385 1.512 1.512 0 001.668-.303l.055-.055a1.834 1.834 0 112.594 2.594l-.055.055a1.513 1.513 0 00-.302 1.669v.073a1.512 1.512 0 001.384.917h.156a1.834 1.834 0 010 3.666h-.082a1.513 1.513 0 00-1.385.917v0z"/>
  </g>

</symbol>
<symbol id="share" viewBox="0 0 24 24">
  <path fill="none" d="M0 0h24v24H0V0z"/>
  <path fill="currentColor" d="M18 16.08c-.76 0-1.44.3-1.96.77L8.91 12.7c.05-.23.09-.46.09-.7s-.04-.47-.09-.7l7.05-4.11c.54.5 1.25.81 2.04.81 1.66 0 3-1.34 3-3s-1.34-3-3-3-3 1.34-3 3c0 .24.04.47.09.7L8.04 9.81C7.5 9.31 6.79 9 6 9c-1.66 0-3 1.34-3 3s1.34 3 3 3c.79 0 1.5-.31 2.04-.81l7.12 4.16c-.05.21-.08.43-.08.65 0 1.61 1.31 2.92 2.92 2.92s2.92-1.31 2.92-2.92c0-1.61-1.31-2.92-2.92-2.92zM18 4c.55 0 1 .45 1 1s-.45 1-1 1-1-.45-1-1 .45-1 1-1zM6 13c-.55 0-1-.45-1-1s.45-1 1-1 1 .45 1 1-.45 1-1 1zm12 7.02c-.55 0-1-.45-1-1s.45-1 1-1 1 .45 1 1-.45 1-1 1z"/>

</symbol>
<symbol id="shopping-cart" viewBox="0 0 22 22">
  <path fill="currentColor" d="M14.254 11.917c.688 0 1.293-.376 1.604-.944l3.282-5.95a.913.913 0 0 0-.797-1.356H4.776l-.862-1.834H.917v1.834H2.75l3.3 6.957-1.237 2.237c-.67 1.228.21 2.722 1.604 2.722h11V13.75h-11l1.008-1.833h6.83ZM5.647 5.5h11.137l-2.53 4.583H7.82L5.647 5.5Zm.77 11a1.83 1.83 0 0 0-1.824 1.833 1.83 1.83 0 0 0 1.824 1.834 1.839 1.839 0 0 0 1.833-1.834A1.839 1.839 0 0 0 6.417 16.5Zm9.166 0a1.83 1.83 0 0 0-1.824 1.833 1.83 1.83 0 0 0 1.824 1.834 1.839 1.839 0 0 0 1.834-1.834 1.839 1.839 0 0 0-1.834-1.833Z"/>

</symbol>
<symbol id="sign" viewBox="0 0 48 48">
  <path fill="currentColor" d="M28 42q-.6 0-1.05-.45-.45-.45-.45-1.05 0-.65.45-1.075Q27.4 39 28 39q2.95 0 4.975-1.2Q35 36.6 35 35q0-1.15-1.475-2.25t-3.975-1.7l2.35-2.35q3.15.95 4.625 2.625T38 35q0 3.35-3.05 5.175Q31.9 42 28 42ZM12 27.3q-3.2-.7-4.6-2.2Q6 23.6 6 22q0-1.75 1.3-3.15t6-3.1q3.3-1.2 4.25-1.95.95-.75.95-1.75 0-1.25-1.1-2.15Q16.3 9 14 9q-1.35 0-2.3.35-.95.35-1.7 1.1-.4.4-1.025.475Q8.35 11 7.85 10.6q-.55-.4-.575-1-.025-.6.375-1.05.85-1.1 2.55-1.825Q11.9 6 14 6q3.4 0 5.45 1.625Q21.5 9.25 21.5 12.05q0 2.05-1.425 3.475Q18.65 16.95 14.5 18.5q-3.35 1.25-4.425 1.975Q9 21.2 9 22q0 .8 1.35 1.525 1.35.725 4.05 1.375Zm24.8-7.7-6.4-6.4 2.25-2.25q.9-.9 2-.9t2 .9l2.4 2.4q.9.9.9 2t-.9 2ZM11 39h2.1l17.25-17.25-2.1-2.1L11 36.9Zm-3 3v-6.4l20.25-20.25 6.4 6.4L14.4 42Zm20.25-22.35 2.1 2.1Z"/>

</symbol>
<symbol id="slideshare" viewBox="0 0 512 512">
<!--! Font Awesome Pro 6.3.0 by @fontawesome - https://fontawesome.com License - https://fontawesome.com/license (Commercial License) Copyright 2023 Fonticons, Inc.-->
  <path fill="currentColor" d="M187.7 153.7c-34 0-61.7 25.7-61.7 57.7 0 31.7 27.7 57.7 61.7 57.7s61.7-26 61.7-57.7c0-32-27.7-57.7-61.7-57.7zm143.4 0c-34 0-61.7 25.7-61.7 57.7 0 31.7 27.7 57.7 61.7 57.7 34.3 0 61.7-26 61.7-57.7.1-32-27.4-57.7-61.7-57.7zm156.6 90l-6 4.3V49.7c0-27.4-20.6-49.7-46-49.7H76.6c-25.4 0-46 22.3-46 49.7V248c-2-1.4-4.3-2.9-6.3-4.3-15.1-10.6-25.1 4-16 17.7 18.3 22.6 53.1 50.3 106.3 72C58.3 525.1 252 555.7 248.9 457.5c0-.7.3-56.6.3-96.6 5.1 1.1 9.4 2.3 13.7 3.1 0 39.7.3 92.8.3 93.5-3.1 98.3 190.6 67.7 134.3-124 53.1-21.7 88-49.4 106.3-72 9.1-13.8-.9-28.3-16.1-17.8zm-30.5 19.2c-68.9 37.4-128.3 31.1-160.6 29.7-23.7-.9-32.6 9.1-33.7 24.9-10.3-7.7-18.6-15.5-20.3-17.1-5.1-5.4-13.7-8-27.1-7.7-31.7 1.1-89.7 7.4-157.4-28V72.3c0-34.9 8.9-45.7 40.6-45.7h317.7c30.3 0 40.9 12.9 40.9 45.7v190.6z"/>

</symbol>
<symbol id="sms" viewBox="0 0 24 24">
  <path fill="none" d="M0 0h24v24H0V0z"/>
  <path fill="currentColor" d="M20 2H4c-1.1 0-2 .9-2 2v18l4-4h14c1.1 0 2-.9 2-2V4c0-1.1-.9-2-2-2zm0 14H5.17L4 17.17V4h16v12zM7 9h2v2H7zm8 0h2v2h-2zm-4 0h2v2h-2z"/>

</symbol>
<symbol id="sort-down" viewBox="0 0 16 16">
  <path fill="#BFC0C4" d="M8 3.887 10.113 6l.94-.94L8 2 4.94 5.06l.947.94L8 3.887Z"/>
  <path fill="currentColor" d="M8.053 12.113 5.94 10l-.94.94L8.053 14l3.06-3.06-.946-.94-2.114 2.113Z"/>

</symbol>
<symbol id="sort-up" viewBox="0 0 16 16">
  <path fill="currentColor" d="M8 3.887 10.113 6l.94-.94L8 2 4.94 5.06l.947.94L8 3.887Z"/>
  <path fill="#BFC0C4" d="M8.053 12.113 5.94 10l-.94.94L8.053 14l3.06-3.06-.946-.94-2.114 2.113Z"/>

</symbol>
<symbol id="sort" viewBox="0 0 16 16">
  <path fill="#BFC0C4" d="M8 3.887 10.113 6l.94-.94L8 2 4.94 5.06l.947.94L8 3.887Z"/>
  <path fill="#BFC0C4" d="M8.053 12.113 5.94 10l-.94.94L8.053 14l3.06-3.06-.946-.94-2.114 2.113Z"/>

</symbol>
<symbol id="store" viewBox="0 0 24 24">
<path fill="currentColor" d="m21.9 8.89-1.05-4.37c-.22-.9-1-1.52-1.91-1.52H5.05c-.9 0-1.69.63-1.9 1.52L2.1 8.89c-.24 1.02-.02 2.06.62 2.88.08.11.19.19.28.29V19c0 1.1.9 2 2 2h14c1.1 0 2-.9 2-2v-6.94c.09-.09.2-.18.28-.28.64-.82.87-1.87.62-2.89zm-2.99-3.9 1.05 4.37c.1.42.01.84-.25 1.17-.14.18-.44.47-.94.47-.61 0-1.14-.49-1.21-1.14L16.98 5l1.93-.01zM13 5h1.96l.54 4.52c.05.39-.07.78-.33 1.07-.22.26-.54.41-.95.41-.67 0-1.22-.59-1.22-1.31V5zM8.49 9.52 9.04 5H11v4.69c0 .72-.55 1.31-1.29 1.31-.34 0-.65-.15-.89-.41a1.42 1.42 0 0 1-.33-1.07zm-4.45-.16L5.05 5h1.97l-.58 4.86c-.08.65-.6 1.14-1.21 1.14-.49 0-.8-.29-.93-.47-.27-.32-.36-.75-.26-1.17zM5 19v-6.03c.08.01.15.03.23.03.87 0 1.66-.36 2.24-.95.6.6 1.4.95 2.31.95.87 0 1.65-.36 2.23-.93.59.57 1.39.93 2.29.93.84 0 1.64-.35 2.24-.95.58.59 1.37.95 2.24.95.08 0 .15-.02.23-.03V19H5z"/>

</symbol>
<symbol id="subtask" viewBox="0 0 12 12">
  <path fill="currentColor" stroke="null" d="M10.018 5.487a.831.88 0 0 0 .832-.879V2.263a.831.88 0 0 0-.832-.879H8.287a.831.88 0 0 0-.832.88v.659h-2.91v-.66a.831.88 0 0 0-.832-.879H1.982a.831.88 0 0 0-.832.88v2.344a.831.88 0 0 0 .832.88h1.731a.831.88 0 0 0 .832-.88v-.66h.97v4.25a.831.88 0 0 0 .832.88h1.108v.659a.831.88 0 0 0 .832.879h1.731a.831.88 0 0 0 .832-.88V7.393a.831.88 0 0 0-.832-.88H8.287a.831.88 0 0 0-.832.88v.66h-.804a.166.176 0 0 1-.166-.177V3.95h.97v.66a.831.88 0 0 0 .832.878h1.731zM3.575 4.461H2.12v-2.05h1.455v2.05zm4.85 3.078H9.88v2.05H8.425V7.54zm0-5.129H9.88v2.051H8.425v-2.05z"/>

</symbol>
<symbol id="tasks" viewBox="0 0 22 22">
  <path d="M7.333 5.5H19.25" stroke="currentColor" stroke-width="2" stroke-linecap="round" stroke-linejoin="round"/>
  <path d="M7.333 11H19.25" stroke="currentColor" stroke-width="2" stroke-linecap="round" stroke-linejoin="round"/>
  <path d="M7.333 16.5H19.25" stroke="currentColor" stroke-width="2" stroke-linecap="round" stroke-linejoin="round"/>
  <path d="M2.75 5.5h.01" stroke="currentColor" stroke-width="2" stroke-linecap="round" stroke-linejoin="round"/>
  <path d="M2.75 11h.01" stroke="currentColor" stroke-width="2" stroke-linecap="round" stroke-linejoin="round"/>
  <path d="M2.75 16.5h.01" stroke="currentColor" stroke-width="2" stroke-linecap="round" stroke-linejoin="round"/>

</symbol>
<symbol id="thumbs-down" viewBox="0 0 512 512">
<!--! Font Awesome Pro 6.4.0 by @fontawesome - https://fontawesome.com License - https://fontawesome.com/license (Commercial License) Copyright 2023 Fonticons, Inc.-->
  <path fill="currentColor" d="M313.4 479.1c26-5.2 42.9-30.5 37.7-56.5l-2.3-11.4c-5.3-26.7-15.1-52.1-28.8-75.2H464c26.5 0 48-21.5 48-48c0-18.5-10.5-34.6-25.9-42.6C497 236.6 504 223.1 504 208c0-23.4-16.8-42.9-38.9-47.1c4.4-7.3 6.9-15.8 6.9-24.9c0-21.3-13.9-39.4-33.1-45.6c.7-3.3 1.1-6.8 1.1-10.4c0-26.5-21.5-48-48-48H294.5c-19 0-37.5 5.6-53.3 16.1L202.7 73.8C176 91.6 160 121.6 160 153.7V192v48 24.9c0 29.2 13.3 56.7 36 75l7.4 5.9c26.5 21.2 44.6 51 51.2 84.2l2.3 11.4c5.2 26 30.5 42.9 56.5 37.7zM32 384H96c17.7 0 32-14.3 32-32V128c0-17.7-14.3-32-32-32H32C14.3 96 0 110.3 0 128V352c0 17.7 14.3 32 32 32z"/>

</symbol>
<symbol id="thumbs-up" viewBox="0 0 512 512">
<!--! Font Awesome Pro 6.4.0 by @fontawesome - https://fontawesome.com License - https://fontawesome.com/license (Commercial License) Copyright 2023 Fonticons, Inc.-->
  <path fill="currentColor" d="M313.4 32.9c26 5.2 42.9 30.5 37.7 56.5l-2.3 11.4c-5.3 26.7-15.1 52.1-28.8 75.2H464c26.5 0 48 21.5 48 48c0 18.5-10.5 34.6-25.9 42.6C497 275.4 504 288.9 504 304c0 23.4-16.8 42.9-38.9 47.1c4.4 7.3 6.9 15.8 6.9 24.9c0 21.3-13.9 39.4-33.1 45.6c.7 3.3 1.1 6.8 1.1 10.4c0 26.5-21.5 48-48 48H294.5c-19 0-37.5-5.6-53.3-16.1l-38.5-25.7C176 420.4 160 390.4 160 358.3V320 272 247.1c0-29.2 13.3-56.7 36-75l7.4-5.9c26.5-21.2 44.6-51 51.2-84.2l2.3-11.4c5.2-26 30.5-42.9 56.5-37.7zM32 192H96c17.7 0 32 14.3 32 32V448c0 17.7-14.3 32-32 32H32c-17.7 0-32-14.3-32-32V224c0-17.7 14.3-32 32-32z"/>

</symbol>
<symbol id="time" viewBox="0 0 24 24">
<path fill="currentColor" d="M11.99 2C6.47 2 2 6.48 2 12s4.47 10 9.99 10C17.52 22 22 17.52 22 12S17.52 2 11.99 2ZM12 20c-4.42 0-8-3.58-8-8s3.58-8 8-8 8 3.58 8 8-3.58 8-8 8Zm.5-13H11v6l5.25 3.15.75-1.23-4.5-2.67V7Z"/>

</symbol>
<symbol id="tractor" viewBox="0 0 24 24">
<path fill="currentColor" d="M4 9h5c0-1.1-.9-2-2-2H4c-.55 0-1 .45-1 1s.45 1 1 1z"/>
<path fill="currentColor" d="M22 14.06V8c0-1.1-.9-2-2-2h-6.29l-1.06-1.06 1.41-1.41-.71-.71-3.53 3.53.71.71 1.41-1.41L13 6.71V9c0 1.1-.9 2-2 2H8.96c-.22-.16-.45-.3-.69-.43l-.4.89-.46-.21.4-.9C7.26 10.13 6.64 10 6 10c-.53 0-1.04.11-1.52.26l.34.91-.47.18-.35-.93a4.92 4.92 0 0 0-2.43 2.31l.89.4-.21.46-.9-.4C1.13 13.74 1 14.36 1 15c0 .53.11 1.04.26 1.52l.91-.34.18.47-.93.35a4.92 4.92 0 0 0 2.31 2.43l.4-.89.46.21-.4.9c.55.22 1.17.35 1.81.35.53 0 1.04-.11 1.52-.26l-.34-.91.47-.18.35.93a4.92 4.92 0 0 0 2.43-2.31l-.89-.4.21-.46.9.4c.1-.26.18-.54.24-.82h5.16c-.02.17-.05.34-.05.51 0 1.93 1.57 3.5 3.5 3.5s3.5-1.57 3.5-3.5c0-.95-.38-1.81-1-2.44zM6 18c-1.66 0-3-1.34-3-3s1.34-3 3-3 3 1.34 3 3-1.34 3-3 3zm4.87-4c-.04-.18-.08-.35-.13-.52l-.91.34-.18-.47.93-.35H11c2.21 0 4-1.79 4-4V8h5v5.05c-.16-.02-.33-.05-.5-.05-.95 0-1.81.38-2.44 1h-6.19zm8.63 4c-.83 0-1.5-.67-1.5-1.5s.67-1.5 1.5-1.5 1.5.67 1.5 1.5-.67 1.5-1.5 1.5z"/>

</symbol>
<symbol id="trash" viewBox="0 0 22 22">
  <path d="M2.75 5.5h16.5" stroke="currentColor" stroke-width="2" stroke-linecap="round" stroke-linejoin="round"/>
  <path d="M7.333 5.5V3.667a1.833 1.833 0 011.834-1.834h3.666a1.833 1.833 0 011.834 1.834V5.5m2.75 0v12.833a1.833 1.833 0 01-1.834 1.834H6.417a1.833 1.833 0 01-1.834-1.834V5.5h12.834z" stroke="currentColor" fill="none" stroke-width="2" stroke-linecap="round" stroke-linejoin="round"/>
  <path d="M9.167 10.083v5.5" stroke="currentColor" stroke-width="2" stroke-linecap="round" stroke-linejoin="round"/>
  <path d="M12.833 10.083v5.5" stroke="currentColor" stroke-width="2" stroke-linecap="round" stroke-linejoin="round"/>

</symbol>
<symbol id="travel-explore" viewBox="0 0 24 24">
  <path fill="none" d="M0 0h24v24H0z"/>
  <path fill="currentColor" d="M19.3 16.9c.4-.7.7-1.5.7-2.4 0-2.5-2-4.5-4.5-4.5S11 12 11 14.5s2 4.5 4.5 4.5c.9 0 1.7-.3 2.4-.7l3.2 3.2 1.4-1.4-3.2-3.2zm-3.8.1c-1.4 0-2.5-1.1-2.5-2.5s1.1-2.5 2.5-2.5 2.5 1.1 2.5 2.5-1.1 2.5-2.5 2.5zM12 20v2C6.48 22 2 17.52 2 12S6.48 2 12 2c4.84 0 8.87 3.44 9.8 8h-2.07A8 8 0 0 0 15 4.59V5c0 1.1-.9 2-2 2h-2v2c0 .55-.45 1-1 1H8v2h2v3H9l-4.79-4.79C4.08 10.79 4 11.38 4 12c0 4.41 3.59 8 8 8z"/>

</symbol>
<symbol id="triangle-exclamation" viewBox="0 0 512 512">
  <path fill="currentColor" d="M256 32c14.2 0 27.3 7.5 34.5 19.8l216 368c7.3 12.4 7.3 27.7 .2 40.1S486.3 480 472 480H40c-14.3 0-27.6-7.7-34.7-20.1s-7-27.8 .2-40.1l216-368C228.7 39.5 241.8 32 256 32zm0 128c-13.3 0-24 10.7-24 24V296c0 13.3 10.7 24 24 24s24-10.7 24-24V184c0-13.3-10.7-24-24-24zm32 224a32 32 0 1 0 -64 0 32 32 0 1 0 64 0z"/>

</symbol>
<symbol id="truck-side" viewBox="0 0 640 512">
  <path fill="currentColor" d="M48 0C21.5 0 0 21.5 0 48v320c0 26.5 21.5 48 48 48h16c0 53 43 96 96 96s96-43 96-96h128c0 53 43 96 96 96s96-43 96-96h32c17.7 0 32-14.3 32-32s-14.3-32-32-32V237.3c0-17-6.7-33.3-18.7-45.3L512 114.7c-12-12-28.3-18.7-45.3-18.7H416V48c0-26.5-21.5-48-48-48H48zm368 160h50.7l77.3 77.3V256H416v-96zM208 416c0 26.5-21.5 48-48 48s-48-21.5-48-48 21.5-48 48-48 48 21.5 48 48zm272 48c-26.5 0-48-21.5-48-48s21.5-48 48-48 48 21.5 48 48-21.5 48-48 48z"/>

</symbol>
<symbol id="truck" viewBox="0 0 24 24">
<path fill="currentColor" d="M20 8h-3V4H3c-1.1 0-2 .9-2 2v11h2c0 1.66 1.34 3 3 3s3-1.34 3-3h6c0 1.66 1.34 3 3 3s3-1.34 3-3h2v-5l-3-4zm-.5 1.5 1.96 2.5H17V9.5h2.5zM6 18c-.55 0-1-.45-1-1s.45-1 1-1 1 .45 1 1-.45 1-1 1zm2.22-3c-.55-.61-1.33-1-2.22-1s-1.67.39-2.22 1H3V6h12v9H8.22zM18 18c-.55 0-1-.45-1-1s.45-1 1-1 1 .45 1 1-.45 1-1 1z"/>

</symbol>
<symbol id="user-shield" viewBox="0 0 23 23">
<path fill="currentColor" d="M10.125 11.917H7.834v-2.75h2.291V6.875h2.75v2.292h2.292v2.75h-2.292v2.291h-2.75v-2.291ZM11.5 1.833l-7.333 2.75v5.583c0 4.629 3.126 8.946 7.333 10 4.208-1.054 7.334-5.371 7.334-10V4.583L11.5 1.833Zm5.5 8.333c0 3.666-2.337 7.058-5.5 8.094C8.338 17.224 6 13.842 6 10.166V5.857l5.5-2.062L17 5.857v4.309Z"/>

</symbol>
<symbol id="user" viewBox="0 0 20 20">
  <path fill="none" stroke="currentColor" stroke-linecap="round" stroke-linejoin="round" stroke-width="1.95" d="M17.6 18.275v-1.837a3.8 3.674 0 0 0-3.8-3.675H6.2a3.8 3.674 0 0 0-3.8 3.675v1.837M10 9.09a3.8 3.675 0 1 0 0-7.35 3.8 3.675 0 0 0 0 7.35z"/>

</symbol>
<symbol id="users" viewBox="0 0 24 24">
  <path d="M17 21v-2a4 4 0 00-4-4H5a4 4 0 00-4 4v2" stroke="currentColor" fill="none" stroke-width="2" stroke-linecap="round" stroke-linejoin="round"/>
  <path d="M9 11a4 4 0 100-8 4 4 0 000 8z" stroke="currentColor" fill="none" stroke-width="2" stroke-linecap="round" stroke-linejoin="round"/>
  <path d="M23 21v-2a4 4 0 00-3-3.87" stroke="currentColor" fill="none" stroke-width="2" stroke-linecap="round" stroke-linejoin="round"/>
  <path d="M16 3.13a4 4 0 010 7.75" stroke="currentColor" fill="none" stroke-width="2" stroke-linecap="round" stroke-linejoin="round"/>

</symbol>
<symbol id="van-side" viewBox="0 0 640 512">
  <path fill="currentColor" d="M64 104v88h96V96H72c-4.4 0-8 3.6-8 8zm482 88-80.9-96H384v96h162zm-226 0V96h-96v96h96zm272 192h-16c0 53-43 96-96 96s-96-43-96-96H256c0 53-43 96-96 96s-96-43-96-96H48c-26.5 0-48-21.5-48-48V104c0-39.8 32.2-72 72-72h393.1c18.9 0 36.8 8.3 49 22.8L625 186.5c9.7 11.5 15 26.1 15 41.2V336c0 26.5-21.5 48-48 48zm-64 0c0-26.5-21.5-48-48-48s-48 21.5-48 48 21.5 48 48 48 48-21.5 48-48zm-368 48c26.5 0 48-21.5 48-48s-21.5-48-48-48-48 21.5-48 48 21.5 48 48 48z"/>

</symbol>
<symbol id="video-call" viewBox="0 0 48 48">
  <path fill="currentColor" d="M18.6 32h3v-6.6h6.6v-3h-6.6v-6.6h-3v6.6H12v3h6.6ZM7 40q-1.2 0-2.1-.9Q4 38.2 4 37V11q0-1.2.9-2.1Q5.8 8 7 8h26q1.2 0 2.1.9.9.9.9 2.1v10.75l8-8v20.5l-8-8V37q0 1.2-.9 2.1-.9.9-2.1.9Zm0-3h26V11H7v26Zm0 0V11v26Z"/>

</symbol>
<symbol id="warning" viewBox="0 0 48 48">
  <path fill="currentColor" d="M2 42 24 4l22 38Zm5.2-3h33.6L24 10Zm17-2.85q.65 0 1.075-.425.425-.425.425-1.075 0-.65-.425-1.075-.425-.425-1.075-.425-.65 0-1.075.425Q22.7 34 22.7 34.65q0 .65.425 1.075.425.425 1.075.425Zm-1.5-5.55h3V19.4h-3Zm1.3-6.1Z"/>

</symbol>
<symbol id="whatsapp" viewBox="0 0 24 24">
    <path fill="currentColor" d="M19.05 4.91A9.816 9.816 0 0 0 12.04 2c-5.46 0-9.91 4.45-9.91 9.91 0 1.75.46 3.45 1.32 4.95L2.05 22l5.25-1.38c1.45.79 3.08 1.21 4.74 1.21 5.46 0 9.91-4.45 9.91-9.91 0-2.65-1.03-5.14-2.9-7.01zm-7.01 15.24c-1.48 0-2.93-.4-4.2-1.15l-.3-.18-3.12.82.83-3.04-.2-.31a8.264 8.264 0 0 1-1.26-4.38c0-4.54 3.7-8.24 8.24-8.24 2.2 0 4.27.86 5.82 2.42a8.183 8.183 0 0 1 2.41 5.83c.02 4.54-3.68 8.23-8.22 8.23zm4.52-6.16c-.25-.12-1.47-.72-1.69-.81-.23-.08-.39-.12-.56.12-.17.25-.64.81-.78.97-.14.17-.29.19-.54.06-.25-.12-1.05-.39-1.99-1.23-.74-.66-1.23-1.47-1.38-1.72-.14-.25-.02-.38.11-.51.11-.11.25-.29.37-.43s.17-.25.25-.41c.08-.17.04-.31-.02-.43s-.56-1.34-.76-1.84c-.2-.48-.41-.42-.56-.43h-.48c-.17 0-.43.06-.66.31-.22.25-.86.85-.86 2.07 0 1.22.89 2.4 1.01 2.56.12.17 1.75 2.67 4.23 3.74.59.26 1.05.41 1.41.52.59.19 1.13.16 1.56.1.48-.07 1.47-.6 1.67-1.18.21-.58.21-1.07.14-1.18s-.22-.16-.47-.28z"/>

</symbol>
<symbol id="wip" viewBox="0 0 22 22">
  <path fill="currentColor" d="M14.059 9.9H3.513v1.8h10.546v2.7l3.504-3.6-3.504-3.6v2.7Z"/>

</symbol></svg>