<svg xmlns="http://www.w3.org/2000/svg" viewBox="0 0 14 14">
  <path fill="currentColor" d="M7 12.614a1.15 1.15 0 0 0 1.14-1.152H5.86A1.15 1.15 0 0 0 7 12.614zm3.42-3.455V6.28c0-1.766-.93-3.247-2.565-3.638V2.25A.858.858 0 0 0 7 1.386a.858.858 0 0 0-.855.864v.39c-1.63.392-2.565 1.866-2.565 3.64v2.88l-1.14 1.15v.577h9.12v-.576Zm-1.14.575H4.72V6.28c0-1.428.86-2.591 2.28-2.591s2.28 1.163 2.28 2.59zm-4.8-7.439-.814-.823a5.942 6.003 0 0 0-2.35 4.52h1.141A4.814 4.863 0 0 1 4.48 2.295Zm7.063 3.697h1.14a5.978 6.039 0 0 0-2.349-4.52l-.81.823a4.842 4.891 0 0 1 2.019 3.697z"/>
</svg>