<svg xmlns="http://www.w3.org/2000/svg" fill="none" viewBox="0 0 22 22">
  <path fill="currentColor" d="M11 6.417V2.75H1.833v16.5h18.334V6.417H11Zm-5.5 11H3.667v-1.834H5.5v1.834Zm0-3.667H3.667v-1.833H5.5v1.833Zm0-3.667H3.667V8.25H5.5v1.833Zm0-3.666H3.667V4.583H5.5v1.834Zm3.667 11H7.333v-1.834h1.834v1.834Zm0-3.667H7.333v-1.833h1.834v1.833Zm0-3.667H7.333V8.25h1.834v1.833Zm0-3.666H7.333V4.583h1.834v1.834Zm9.166 11H11v-1.834h1.833V13.75H11v-1.833h1.833v-1.834H11V8.25h7.333v9.167ZM16.5 10.083h-1.833v1.834H16.5v-1.834Zm0 3.667h-1.833v1.833H16.5V13.75Z"/>
</svg>