<svg xmlns="http://www.w3.org/2000/svg" fill="none" viewBox="0 0 23 23">
<path fill="currentColor" d="M17.843 5.51a1.37 1.37 0 0 0-1.301-.927H6.458c-.605 0-1.109.385-1.301.926L3.25 11v7.334a.92.92 0 0 0 .917.917h.916A.92.92 0 0 0 6 18.333v-.916h11v.916a.92.92 0 0 0 .917.917h.916a.92.92 0 0 0 .917-.917V11l-1.907-5.49ZM6.78 6.416h9.433l.99 2.85H5.789l.99-2.85Zm11.138 9.166H5.083V11h12.834v4.583Z"/>
<path fill="currentColor" d="M7.375 14.667a1.375 1.375 0 1 0 0-2.75 1.375 1.375 0 0 0 0 2.75ZM15.625 14.667a1.375 1.375 0 1 0 0-2.75 1.375 1.375 0 0 0 0 2.75Z"/>
</svg>