<svg xmlns="http://www.w3.org/2000/svg" fill="none" viewBox="0 0 22 22">
  <path fill="currentColor" d="M3.667 11.917A1.839 1.839 0 0 0 5.5 10.083 1.839 1.839 0 0 0 3.667 8.25a1.839 1.839 0 0 0-1.834 1.833c0 1.009.825 1.834 1.834 1.834Zm1.035 1.008a6.4 6.4 0 0 0-1.035-.092 6.37 6.37 0 0 0-2.549.532A1.843 1.843 0 0 0 0 15.061V16.5h4.125v-1.476c0-.76.21-1.476.577-2.099Zm13.631-1.008a1.839 1.839 0 0 0 1.834-1.834 1.839 1.839 0 0 0-1.834-1.833 1.839 1.839 0 0 0-1.833 1.833c0 1.009.825 1.834 1.833 1.834ZM22 15.06c0-.743-.44-1.403-1.118-1.696a6.371 6.371 0 0 0-2.549-.532 6.4 6.4 0 0 0-1.035.092c.366.623.577 1.338.577 2.1V16.5H22v-1.44Zm-7.113-2.549A9.572 9.572 0 0 0 11 11.688a9.727 9.727 0 0 0-3.887.825A2.74 2.74 0 0 0 5.5 15.024V16.5h11v-1.476a2.739 2.739 0 0 0-1.613-2.511Zm-7.49 2.155c.083-.211.12-.358.835-.633A7.56 7.56 0 0 1 11 13.521c.944 0 1.88.165 2.768.513.706.275.743.422.834.633H7.397ZM11 7.333a.92.92 0 0 1 .917.917.92.92 0 0 1-.917.917.92.92 0 0 1-.917-.917.92.92 0 0 1 .917-.917ZM11 5.5a2.746 2.746 0 0 0-2.75 2.75A2.746 2.746 0 0 0 11 11a2.746 2.746 0 0 0 2.75-2.75A2.746 2.746 0 0 0 11 5.5Z"/>
</svg>