<svg xmlns="http://www.w3.org/2000/svg" viewBox="0 0 24 24">
  <path fill="none" d="M0 0h24v24H0V0z"/>
  <path fill="currentColor" stroke="null" d="M19.519 7.94a2.503 2.432 0 0 0-2.498 2.607l-1.696.552a3.732 3.627 0 0 0-2.69-1.884V7.462a2.52 2.45 0 0 0 1.871-2.363c0-1.348-1.12-2.436-2.506-2.436S9.494 3.751 9.494 5.1c0 1.137.802 2.086 1.88 2.363v1.753a3.728 3.745 0 0 0-2.69 1.884l-1.705-.552c.01-.057.01-.114.01-.171 0-1.348-1.12-2.436-2.508-2.436S1.975 9.03 1.975 10.376s1.12 2.436 2.506 2.436A2.539 2.55 0 0 0 6.587 11.7l1.695.551a3.568 3.584 0 0 0 .91 2.997l-1.177 1.437a2.44 2.45 0 0 0-1.027-.219c-1.388 0-2.507 1.088-2.507 2.435s1.12 2.436 2.507 2.436 2.506-1.088 2.506-2.436c0-.552-.184-1.056-.502-1.461l1.18-1.438a3.869 3.887 0 0 0 3.649 0l1.178 1.438a2.377 2.388 0 0 0-.493 1.46c0 1.349 1.12 2.437 2.506 2.437s2.507-1.088 2.507-2.436-1.12-2.436-2.507-2.436c-.368 0-.71.073-1.027.212l-1.179-1.438a3.751 3.645 0 0 0 .912-2.996l1.695-.552a2.526 2.538 0 0 0 2.106 1.112c1.386 0 2.506-1.087 2.506-2.435s-1.12-2.428-2.506-2.428zM4.48 11.19c-.458 0-.835-.366-.835-.813s.377-.81.835-.81.836.363.836.81-.376.812-.836.812zm2.507 8.523c-.46 0-.835-.364-.835-.81s.375-.813.835-.813.836.365.836.812-.377.811-.836.811zM11.166 5.1c0-.446.375-.812.835-.812s.835.365.835.811-.375.813-.835.813-.835-.365-.835-.812zM12 14.842a2.088 2.03 0 0 1 0-4.06 2.088 2.03 0 0 1 0 4.06zm5.012 3.247c.46 0 .835.365.835.812s-.376.812-.835.812-.836-.365-.836-.811.377-.813.836-.813zm2.507-6.9c-.46 0-.836-.366-.836-.813s.376-.81.836-.81.835.364.835.81-.377.812-.835.812z"/>
</svg>