<svg xmlns="http://www.w3.org/2000/svg" viewBox="0 0 35 35">
  <path fill="currentColor" fill-opacity="1" d="M17.198 0c-.692.26-1.21.605-1.296 1.383v7.086c0 1.037.691 1.815 1.728 1.815.95 0 1.728-.778 1.728-1.815V2.16c0-1.037-.345-1.814-1.382-2.16h-.778z"/>
  <path fill="currentColor" fill-opacity="0.875" d="M11.408 12.877c.518 0 1.037-.346 1.296-.951a1.739 1.739 0 00-.26-1.815 6.907 6.907 0 00-1.123-1.123L7.52 5.185C7 4.667 6.395 4.494 5.79 4.753c-.691.173-1.037.605-1.123 1.296a1.594 1.594 0 00.432 1.383l4.926 4.926c.345.346.691.519 1.383.519z"/>
  <path fill="currentColor" fill-opacity="0.74" d="M5.099 15.815H1.815C.778 15.815 0 16.506 0 17.543c0 .95.778 1.729 1.815 1.729h6.654c1.037 0 1.815-.692 1.815-1.729 0-.95-.778-1.728-1.815-1.728H5.1z"/>
  <path fill="currentColor" fill-opacity="0.608" d="M4.666 28.691c0 .692.346 1.297 1.037 1.556.692.26 1.297.173 1.902-.346l2.074-2.074 2.592-2.592c.692-.692.778-1.815.087-2.507-.692-.691-1.729-.691-2.507.087l-4.58 4.58c-.345.26-.605.691-.605 1.296z"/>
  <path fill="currentColor" fill-opacity="0.335" d="M23.852 22.123c-.691 0-1.21.346-1.555 1.038-.26.69-.173 1.296.259 1.814.26.26.518.519.778.865l4.061 4.061c.951.95 2.507.519 2.852-.691.173-.605 0-1.21-.432-1.728l-1.469-1.47-3.198-3.197c-.345-.519-.777-.692-1.296-.692z"/>
  <path fill="currentColor" fill-opacity="0.335" d="M19.186 29.815V26.53c0-1.037-.692-1.815-1.729-1.815-.95 0-1.728.778-1.728 1.815v6.654c0 1.037.691 1.815 1.728 1.815.95 0 1.729-.778 1.729-1.815v-3.37z"/>
  <path fill="currentColor" fill-opacity="0.195" d="M35 17.111c-.26-.691-.605-1.21-1.383-1.296h-7.086c-1.037 0-1.815.691-1.815 1.728 0 .95.778 1.729 1.815 1.729h6.309c1.036 0 1.814-.346 2.16-1.383v-.778z"/>
  <path fill="currentColor" fill-opacity="0.057" d="M22.123 11.148c0 .692.346 1.297 1.037 1.556.692.26 1.297.173 1.902-.346a14062.787 14062.787 0 014.84-4.84c.518-.518.604-1.123.431-1.728-.26-.691-.691-1.037-1.382-1.21a1.594 1.594 0 00-1.383.432l-4.926 4.926a1.706 1.706 0 00-.519 1.21z"/>
</svg>
