<svg xmlns="http://www.w3.org/2000/svg" viewBox="0 0 16 16">
  <path fill="currentColor" stroke="null" d="M12.252 5.783h-.71V4.547a3.545 3.093 0 0 0-7.085 0v1.236h-.709c-.78 0-1.417.557-1.417 1.236v6.184c0 .68.638 1.236 1.417 1.236h8.504c.78 0 1.417-.557 1.417-1.236V7.02c0-.68-.638-1.237-1.417-1.237zM5.874 4.547c0-1.027.95-1.855 2.126-1.855s2.126.828 2.126 1.855v1.236H5.874V4.547zm6.378 8.656H3.748V7.02h8.504v6.183zM8 11.348c.78 0 1.417-.557 1.417-1.236S8.779 8.874 8 8.874s-1.417.557-1.417 1.238c0 .68.638 1.236 1.417 1.236z"/>
</svg>