<svg xmlns="http://www.w3.org/2000/svg" fill="none" viewBox="0 0 23 23">
<path fill="currentColor" d="M14.85 8.6c0-.522.428-.95.95-.95.523 0 .95.428.95.95 0 .523-.427.95-.95.95a.953.953 0 0 1-.95-.95ZM8.2 7.65h4.75v-1.9H8.2v1.9Zm13.3-1.425v6.622l-2.679.893-1.596 5.31H12v-1.9h-1.9v1.9H4.875S2.5 11.013 2.5 8.125A5.222 5.222 0 0 1 7.725 2.9h4.75a4.745 4.745 0 0 1 3.8-1.9 1.423 1.423 0 0 1 1.311 1.976 4.592 4.592 0 0 0-.304 1.093l2.157 2.156H21.5Zm-1.9 1.9h-.95L15.325 4.8c0-.617.086-1.225.247-1.814A2.865 2.865 0 0 0 13.586 4.8H7.725A3.329 3.329 0 0 0 4.4 8.125c0 1.786 1.159 6.318 1.91 9.025H8.2v-1.9h5.7v1.9h1.91l1.472-4.892 2.318-.78V8.126Z"/>
</svg>