<svg xmlns="http://www.w3.org/2000/svg" viewBox="0 0 22 22">
  <g clip-path="url(#clip0_143_378)" stroke="currentColor" fill="none" stroke-width="2" stroke-linecap="round" stroke-linejoin="round">
    <path d="M11 13.75a2.75 2.75 0 100-5.5 2.75 2.75 0 000 5.5z"/>
    <path d="M17.783 13.75a1.513 1.513 0 00.303 1.668l.055.055a1.834 1.834 0 11-2.594 2.594l-.055-.055a1.512 1.512 0 00-1.669-.302 1.513 1.513 0 00-.916 1.384v.156a1.833 1.833 0 01-3.667 0v-.082a1.513 1.513 0 00-.99-1.385 1.513 1.513 0 00-1.668.303l-.055.055a1.833 1.833 0 11-2.595-2.594l.055-.055a1.512 1.512 0 00.303-1.669 1.512 1.512 0 00-1.384-.916H2.75a1.833 1.833 0 110-3.667h.082a1.512 1.512 0 001.385-.99 1.512 1.512 0 00-.303-1.668l-.055-.055a1.833 1.833 0 112.594-2.595l.055.055a1.512 1.512 0 001.669.303h.073a1.513 1.513 0 00.917-1.384V2.75a1.833 1.833 0 113.666 0v.082a1.512 1.512 0 00.917 1.385 1.512 1.512 0 001.668-.303l.055-.055a1.834 1.834 0 112.594 2.594l-.055.055a1.513 1.513 0 00-.302 1.669v.073a1.512 1.512 0 001.384.917h.156a1.834 1.834 0 010 3.666h-.082a1.513 1.513 0 00-1.385.917v0z"/>
  </g>
</svg>
