<svg xmlns="http://www.w3.org/2000/svg" fill="none" viewBox="0 0 22 22">
  <path fill="currentColor" d="M14.254 11.917c.688 0 1.293-.376 1.604-.944l3.282-5.95a.913.913 0 0 0-.797-1.356H4.776l-.862-1.834H.917v1.834H2.75l3.3 6.957-1.237 2.237c-.67 1.228.21 2.722 1.604 2.722h11V13.75h-11l1.008-1.833h6.83ZM5.647 5.5h11.137l-2.53 4.583H7.82L5.647 5.5Zm.77 11a1.83 1.83 0 0 0-1.824 1.833 1.83 1.83 0 0 0 1.824 1.834 1.839 1.839 0 0 0 1.833-1.834A1.839 1.839 0 0 0 6.417 16.5Zm9.166 0a1.83 1.83 0 0 0-1.824 1.833 1.83 1.83 0 0 0 1.824 1.834 1.839 1.839 0 0 0 1.834-1.834 1.839 1.839 0 0 0-1.834-1.833Z"/>
</svg>