<svg xmlns="http://www.w3.org/2000/svg" viewBox="0 0 12 12">
  <path fill="currentColor" stroke="null" d="M10.018 5.487a.831.88 0 0 0 .832-.879V2.263a.831.88 0 0 0-.832-.879H8.287a.831.88 0 0 0-.832.88v.659h-2.91v-.66a.831.88 0 0 0-.832-.879H1.982a.831.88 0 0 0-.832.88v2.344a.831.88 0 0 0 .832.88h1.731a.831.88 0 0 0 .832-.88v-.66h.97v4.25a.831.88 0 0 0 .832.88h1.108v.659a.831.88 0 0 0 .832.879h1.731a.831.88 0 0 0 .832-.88V7.393a.831.88 0 0 0-.832-.88H8.287a.831.88 0 0 0-.832.88v.66h-.804a.166.176 0 0 1-.166-.177V3.95h.97v.66a.831.88 0 0 0 .832.878h1.731zM3.575 4.461H2.12v-2.05h1.455v2.05zm4.85 3.078H9.88v2.05H8.425V7.54zm0-5.129H9.88v2.051H8.425v-2.05z"/>
</svg>